<?xml version="1.0" encoding="utf-8" standalone="no"?>
<!DOCTYPE svg PUBLIC "-//W3C//DTD SVG 1.1//EN"
  "http://www.w3.org/Graphics/SVG/1.1/DTD/svg11.dtd">
<!-- Created with matplotlib (https://matplotlib.org/) -->
<svg height="345.6pt" version="1.1" viewBox="0 0 460.8 345.6" width="460.8pt" xmlns="http://www.w3.org/2000/svg" xmlns:xlink="http://www.w3.org/1999/xlink">
 <defs>
  <style type="text/css">
*{stroke-linecap:butt;stroke-linejoin:round;}
  </style>
 </defs>
 <g id="figure_1">
  <g id="patch_1">
   <path d="M 0 345.6 
L 460.8 345.6 
L 460.8 0 
L 0 0 
z
" style="fill:#ffffff;"/>
  </g>
  <g id="axes_1">
   <g id="patch_2">
    <path d="M 38.99 302.92 
L 450 302.92 
L 450 10.8 
L 38.99 10.8 
z
" style="fill:#ffffff;"/>
   </g>
   <g id="matplotlib.axis_1">
    <g id="xtick_1">
     <g id="line2d_1">
      <defs>
       <path d="M 0 0 
L 0 3.5 
" id="mc44ff49626" style="stroke:#000000;stroke-width:0.8;"/>
      </defs>
      <g>
       <use style="stroke:#000000;stroke-width:0.8;" x="57.633084" xlink:href="#mc44ff49626" y="302.92"/>
      </g>
     </g>
     <g id="text_1">
      <!-- 0 -->
      <defs>
       <path d="M 31.78125 66.40625 
Q 24.171875 66.40625 20.328125 58.90625 
Q 16.5 51.421875 16.5 36.375 
Q 16.5 21.390625 20.328125 13.890625 
Q 24.171875 6.390625 31.78125 6.390625 
Q 39.453125 6.390625 43.28125 13.890625 
Q 47.125 21.390625 47.125 36.375 
Q 47.125 51.421875 43.28125 58.90625 
Q 39.453125 66.40625 31.78125 66.40625 
z
M 31.78125 74.21875 
Q 44.046875 74.21875 50.515625 64.515625 
Q 56.984375 54.828125 56.984375 36.375 
Q 56.984375 17.96875 50.515625 8.265625 
Q 44.046875 -1.421875 31.78125 -1.421875 
Q 19.53125 -1.421875 13.0625 8.265625 
Q 6.59375 17.96875 6.59375 36.375 
Q 6.59375 54.828125 13.0625 64.515625 
Q 19.53125 74.21875 31.78125 74.21875 
z
" id="DejaVuSans-48"/>
      </defs>
      <g transform="translate(54.451834 317.518437)scale(0.1 -0.1)">
       <use xlink:href="#DejaVuSans-48"/>
      </g>
     </g>
    </g>
    <g id="xtick_2">
     <g id="line2d_2">
      <g>
       <use style="stroke:#000000;stroke-width:0.8;" x="119.837088" xlink:href="#mc44ff49626" y="302.92"/>
      </g>
     </g>
     <g id="text_2">
      <!-- 10 -->
      <defs>
       <path d="M 12.40625 8.296875 
L 28.515625 8.296875 
L 28.515625 63.921875 
L 10.984375 60.40625 
L 10.984375 69.390625 
L 28.421875 72.90625 
L 38.28125 72.90625 
L 38.28125 8.296875 
L 54.390625 8.296875 
L 54.390625 0 
L 12.40625 0 
z
" id="DejaVuSans-49"/>
      </defs>
      <g transform="translate(113.474588 317.518437)scale(0.1 -0.1)">
       <use xlink:href="#DejaVuSans-49"/>
       <use x="63.623047" xlink:href="#DejaVuSans-48"/>
      </g>
     </g>
    </g>
    <g id="xtick_3">
     <g id="line2d_3">
      <g>
       <use style="stroke:#000000;stroke-width:0.8;" x="182.041092" xlink:href="#mc44ff49626" y="302.92"/>
      </g>
     </g>
     <g id="text_3">
      <!-- 20 -->
      <defs>
       <path d="M 19.1875 8.296875 
L 53.609375 8.296875 
L 53.609375 0 
L 7.328125 0 
L 7.328125 8.296875 
Q 12.9375 14.109375 22.625 23.890625 
Q 32.328125 33.6875 34.8125 36.53125 
Q 39.546875 41.84375 41.421875 45.53125 
Q 43.3125 49.21875 43.3125 52.78125 
Q 43.3125 58.59375 39.234375 62.25 
Q 35.15625 65.921875 28.609375 65.921875 
Q 23.96875 65.921875 18.8125 64.3125 
Q 13.671875 62.703125 7.8125 59.421875 
L 7.8125 69.390625 
Q 13.765625 71.78125 18.9375 73 
Q 24.125 74.21875 28.421875 74.21875 
Q 39.75 74.21875 46.484375 68.546875 
Q 53.21875 62.890625 53.21875 53.421875 
Q 53.21875 48.921875 51.53125 44.890625 
Q 49.859375 40.875 45.40625 35.40625 
Q 44.1875 33.984375 37.640625 27.21875 
Q 31.109375 20.453125 19.1875 8.296875 
z
" id="DejaVuSans-50"/>
      </defs>
      <g transform="translate(175.678592 317.518437)scale(0.1 -0.1)">
       <use xlink:href="#DejaVuSans-50"/>
       <use x="63.623047" xlink:href="#DejaVuSans-48"/>
      </g>
     </g>
    </g>
    <g id="xtick_4">
     <g id="line2d_4">
      <g>
       <use style="stroke:#000000;stroke-width:0.8;" x="244.245095" xlink:href="#mc44ff49626" y="302.92"/>
      </g>
     </g>
     <g id="text_4">
      <!-- 30 -->
      <defs>
       <path d="M 40.578125 39.3125 
Q 47.65625 37.796875 51.625 33 
Q 55.609375 28.21875 55.609375 21.1875 
Q 55.609375 10.40625 48.1875 4.484375 
Q 40.765625 -1.421875 27.09375 -1.421875 
Q 22.515625 -1.421875 17.65625 -0.515625 
Q 12.796875 0.390625 7.625 2.203125 
L 7.625 11.71875 
Q 11.71875 9.328125 16.59375 8.109375 
Q 21.484375 6.890625 26.8125 6.890625 
Q 36.078125 6.890625 40.9375 10.546875 
Q 45.796875 14.203125 45.796875 21.1875 
Q 45.796875 27.640625 41.28125 31.265625 
Q 36.765625 34.90625 28.71875 34.90625 
L 20.21875 34.90625 
L 20.21875 43.015625 
L 29.109375 43.015625 
Q 36.375 43.015625 40.234375 45.921875 
Q 44.09375 48.828125 44.09375 54.296875 
Q 44.09375 59.90625 40.109375 62.90625 
Q 36.140625 65.921875 28.71875 65.921875 
Q 24.65625 65.921875 20.015625 65.03125 
Q 15.375 64.15625 9.8125 62.3125 
L 9.8125 71.09375 
Q 15.4375 72.65625 20.34375 73.4375 
Q 25.25 74.21875 29.59375 74.21875 
Q 40.828125 74.21875 47.359375 69.109375 
Q 53.90625 64.015625 53.90625 55.328125 
Q 53.90625 49.265625 50.4375 45.09375 
Q 46.96875 40.921875 40.578125 39.3125 
z
" id="DejaVuSans-51"/>
      </defs>
      <g transform="translate(237.882595 317.518437)scale(0.1 -0.1)">
       <use xlink:href="#DejaVuSans-51"/>
       <use x="63.623047" xlink:href="#DejaVuSans-48"/>
      </g>
     </g>
    </g>
    <g id="xtick_5">
     <g id="line2d_5">
      <g>
       <use style="stroke:#000000;stroke-width:0.8;" x="306.449099" xlink:href="#mc44ff49626" y="302.92"/>
      </g>
     </g>
     <g id="text_5">
      <!-- 40 -->
      <defs>
       <path d="M 37.796875 64.3125 
L 12.890625 25.390625 
L 37.796875 25.390625 
z
M 35.203125 72.90625 
L 47.609375 72.90625 
L 47.609375 25.390625 
L 58.015625 25.390625 
L 58.015625 17.1875 
L 47.609375 17.1875 
L 47.609375 0 
L 37.796875 0 
L 37.796875 17.1875 
L 4.890625 17.1875 
L 4.890625 26.703125 
z
" id="DejaVuSans-52"/>
      </defs>
      <g transform="translate(300.086599 317.518437)scale(0.1 -0.1)">
       <use xlink:href="#DejaVuSans-52"/>
       <use x="63.623047" xlink:href="#DejaVuSans-48"/>
      </g>
     </g>
    </g>
    <g id="xtick_6">
     <g id="line2d_6">
      <g>
       <use style="stroke:#000000;stroke-width:0.8;" x="368.653103" xlink:href="#mc44ff49626" y="302.92"/>
      </g>
     </g>
     <g id="text_6">
      <!-- 50 -->
      <defs>
       <path d="M 10.796875 72.90625 
L 49.515625 72.90625 
L 49.515625 64.59375 
L 19.828125 64.59375 
L 19.828125 46.734375 
Q 21.96875 47.46875 24.109375 47.828125 
Q 26.265625 48.1875 28.421875 48.1875 
Q 40.625 48.1875 47.75 41.5 
Q 54.890625 34.8125 54.890625 23.390625 
Q 54.890625 11.625 47.5625 5.09375 
Q 40.234375 -1.421875 26.90625 -1.421875 
Q 22.3125 -1.421875 17.546875 -0.640625 
Q 12.796875 0.140625 7.71875 1.703125 
L 7.71875 11.625 
Q 12.109375 9.234375 16.796875 8.0625 
Q 21.484375 6.890625 26.703125 6.890625 
Q 35.15625 6.890625 40.078125 11.328125 
Q 45.015625 15.765625 45.015625 23.390625 
Q 45.015625 31 40.078125 35.4375 
Q 35.15625 39.890625 26.703125 39.890625 
Q 22.75 39.890625 18.8125 39.015625 
Q 14.890625 38.140625 10.796875 36.28125 
z
" id="DejaVuSans-53"/>
      </defs>
      <g transform="translate(362.290603 317.518437)scale(0.1 -0.1)">
       <use xlink:href="#DejaVuSans-53"/>
       <use x="63.623047" xlink:href="#DejaVuSans-48"/>
      </g>
     </g>
    </g>
    <g id="xtick_7">
     <g id="line2d_7">
      <g>
       <use style="stroke:#000000;stroke-width:0.8;" x="430.857107" xlink:href="#mc44ff49626" y="302.92"/>
      </g>
     </g>
     <g id="text_7">
      <!-- 60 -->
      <defs>
       <path d="M 33.015625 40.375 
Q 26.375 40.375 22.484375 35.828125 
Q 18.609375 31.296875 18.609375 23.390625 
Q 18.609375 15.53125 22.484375 10.953125 
Q 26.375 6.390625 33.015625 6.390625 
Q 39.65625 6.390625 43.53125 10.953125 
Q 47.40625 15.53125 47.40625 23.390625 
Q 47.40625 31.296875 43.53125 35.828125 
Q 39.65625 40.375 33.015625 40.375 
z
M 52.59375 71.296875 
L 52.59375 62.3125 
Q 48.875 64.0625 45.09375 64.984375 
Q 41.3125 65.921875 37.59375 65.921875 
Q 27.828125 65.921875 22.671875 59.328125 
Q 17.53125 52.734375 16.796875 39.40625 
Q 19.671875 43.65625 24.015625 45.921875 
Q 28.375 48.1875 33.59375 48.1875 
Q 44.578125 48.1875 50.953125 41.515625 
Q 57.328125 34.859375 57.328125 23.390625 
Q 57.328125 12.15625 50.6875 5.359375 
Q 44.046875 -1.421875 33.015625 -1.421875 
Q 20.359375 -1.421875 13.671875 8.265625 
Q 6.984375 17.96875 6.984375 36.375 
Q 6.984375 53.65625 15.1875 63.9375 
Q 23.390625 74.21875 37.203125 74.21875 
Q 40.921875 74.21875 44.703125 73.484375 
Q 48.484375 72.75 52.59375 71.296875 
z
" id="DejaVuSans-54"/>
      </defs>
      <g transform="translate(424.494607 317.518437)scale(0.1 -0.1)">
       <use xlink:href="#DejaVuSans-54"/>
       <use x="63.623047" xlink:href="#DejaVuSans-48"/>
      </g>
     </g>
    </g>
    <g id="text_8">
     <!-- Time (min) -->
     <defs>
      <path d="M 0.484375 72.90625 
L 67.671875 72.90625 
L 67.671875 58.6875 
L 43.5 58.6875 
L 43.5 0 
L 24.703125 0 
L 24.703125 58.6875 
L 0.484375 58.6875 
z
" id="DejaVuSans-Bold-84"/>
      <path d="M 8.40625 54.6875 
L 25.875 54.6875 
L 25.875 0 
L 8.40625 0 
z
M 8.40625 75.984375 
L 25.875 75.984375 
L 25.875 61.71875 
L 8.40625 61.71875 
z
" id="DejaVuSans-Bold-105"/>
      <path d="M 59.078125 45.609375 
Q 62.40625 50.6875 66.96875 53.34375 
Q 71.53125 56 77 56 
Q 86.421875 56 91.359375 50.1875 
Q 96.296875 44.390625 96.296875 33.296875 
L 96.296875 0 
L 78.71875 0 
L 78.71875 28.515625 
Q 78.765625 29.15625 78.78125 29.828125 
Q 78.8125 30.515625 78.8125 31.78125 
Q 78.8125 37.59375 77.09375 40.203125 
Q 75.390625 42.828125 71.578125 42.828125 
Q 66.609375 42.828125 63.890625 38.71875 
Q 61.1875 34.625 61.078125 26.859375 
L 61.078125 0 
L 43.5 0 
L 43.5 28.515625 
Q 43.5 37.59375 41.9375 40.203125 
Q 40.375 42.828125 36.375 42.828125 
Q 31.34375 42.828125 28.609375 38.703125 
Q 25.875 34.578125 25.875 26.90625 
L 25.875 0 
L 8.296875 0 
L 8.296875 54.6875 
L 25.875 54.6875 
L 25.875 46.6875 
Q 29.109375 51.3125 33.28125 53.65625 
Q 37.453125 56 42.484375 56 
Q 48.140625 56 52.484375 53.265625 
Q 56.84375 50.53125 59.078125 45.609375 
z
" id="DejaVuSans-Bold-109"/>
      <path d="M 62.984375 27.484375 
L 62.984375 22.515625 
L 22.125 22.515625 
Q 22.75 16.359375 26.5625 13.28125 
Q 30.375 10.203125 37.203125 10.203125 
Q 42.71875 10.203125 48.5 11.84375 
Q 54.296875 13.484375 60.40625 16.796875 
L 60.40625 3.328125 
Q 54.203125 0.984375 48 -0.21875 
Q 41.796875 -1.421875 35.59375 -1.421875 
Q 20.75 -1.421875 12.515625 6.125 
Q 4.296875 13.671875 4.296875 27.296875 
Q 4.296875 40.671875 12.375 48.328125 
Q 20.453125 56 34.625 56 
Q 47.515625 56 55.25 48.234375 
Q 62.984375 40.484375 62.984375 27.484375 
z
M 45.015625 33.296875 
Q 45.015625 38.28125 42.109375 41.328125 
Q 39.203125 44.390625 34.515625 44.390625 
Q 29.4375 44.390625 26.265625 41.53125 
Q 23.09375 38.671875 22.3125 33.296875 
z
" id="DejaVuSans-Bold-101"/>
      <path id="DejaVuSans-Bold-32"/>
      <path d="M 37.703125 -13.1875 
L 23.1875 -13.1875 
Q 15.71875 -1.125 12.15625 9.734375 
Q 8.59375 20.609375 8.59375 31.296875 
Q 8.59375 42 12.171875 52.953125 
Q 15.765625 63.921875 23.1875 75.875 
L 37.703125 75.875 
Q 31.453125 64.3125 28.328125 53.25 
Q 25.203125 42.1875 25.203125 31.390625 
Q 25.203125 20.609375 28.296875 9.515625 
Q 31.390625 -1.5625 37.703125 -13.1875 
z
" id="DejaVuSans-Bold-40"/>
      <path d="M 63.375 33.296875 
L 63.375 0 
L 45.796875 0 
L 45.796875 5.421875 
L 45.796875 25.484375 
Q 45.796875 32.5625 45.484375 35.25 
Q 45.171875 37.9375 44.390625 39.203125 
Q 43.359375 40.921875 41.59375 41.875 
Q 39.84375 42.828125 37.59375 42.828125 
Q 32.125 42.828125 29 38.59375 
Q 25.875 34.375 25.875 26.90625 
L 25.875 0 
L 8.40625 0 
L 8.40625 54.6875 
L 25.875 54.6875 
L 25.875 46.6875 
Q 29.828125 51.46875 34.265625 53.734375 
Q 38.71875 56 44.09375 56 
Q 53.5625 56 58.46875 50.1875 
Q 63.375 44.390625 63.375 33.296875 
z
" id="DejaVuSans-Bold-110"/>
      <path d="M 8.015625 -13.1875 
Q 14.265625 -1.5625 17.390625 9.515625 
Q 20.515625 20.609375 20.515625 31.390625 
Q 20.515625 42.1875 17.390625 53.25 
Q 14.265625 64.3125 8.015625 75.875 
L 22.515625 75.875 
Q 29.9375 63.921875 33.515625 52.953125 
Q 37.109375 42 37.109375 31.296875 
Q 37.109375 20.609375 33.546875 9.734375 
Q 29.984375 -1.125 22.515625 -13.1875 
z
" id="DejaVuSans-Bold-41"/>
     </defs>
     <g transform="translate(207.869687 332.71625)scale(0.12 -0.12)">
      <use xlink:href="#DejaVuSans-Bold-84"/>
      <use x="68.212891" xlink:href="#DejaVuSans-Bold-105"/>
      <use x="102.490234" xlink:href="#DejaVuSans-Bold-109"/>
      <use x="206.689453" xlink:href="#DejaVuSans-Bold-101"/>
      <use x="274.511719" xlink:href="#DejaVuSans-Bold-32"/>
      <use x="309.326172" xlink:href="#DejaVuSans-Bold-40"/>
      <use x="355.029297" xlink:href="#DejaVuSans-Bold-109"/>
      <use x="459.228516" xlink:href="#DejaVuSans-Bold-105"/>
      <use x="493.505859" xlink:href="#DejaVuSans-Bold-110"/>
      <use x="564.697266" xlink:href="#DejaVuSans-Bold-41"/>
     </g>
    </g>
   </g>
   <g id="matplotlib.axis_2">
    <g id="ytick_1">
     <g id="line2d_8">
      <defs>
       <path d="M 0 0 
L -3.5 0 
" id="m68fa2416cc" style="stroke:#000000;stroke-width:0.8;"/>
      </defs>
      <g>
       <use style="stroke:#000000;stroke-width:0.8;" x="38.99" xlink:href="#m68fa2416cc" y="289.641818"/>
      </g>
     </g>
     <g id="text_9">
      <!-- 0 -->
      <g transform="translate(25.6275 293.441037)scale(0.1 -0.1)">
       <use xlink:href="#DejaVuSans-48"/>
      </g>
     </g>
    </g>
    <g id="ytick_2">
     <g id="line2d_9">
      <g>
       <use style="stroke:#000000;stroke-width:0.8;" x="38.99" xlink:href="#m68fa2416cc" y="232.759909"/>
      </g>
     </g>
     <g id="text_10">
      <!-- 2 -->
      <g transform="translate(25.6275 236.559128)scale(0.1 -0.1)">
       <use xlink:href="#DejaVuSans-50"/>
      </g>
     </g>
    </g>
    <g id="ytick_3">
     <g id="line2d_10">
      <g>
       <use style="stroke:#000000;stroke-width:0.8;" x="38.99" xlink:href="#m68fa2416cc" y="175.878001"/>
      </g>
     </g>
     <g id="text_11">
      <!-- 4 -->
      <g transform="translate(25.6275 179.677219)scale(0.1 -0.1)">
       <use xlink:href="#DejaVuSans-52"/>
      </g>
     </g>
    </g>
    <g id="ytick_4">
     <g id="line2d_11">
      <g>
       <use style="stroke:#000000;stroke-width:0.8;" x="38.99" xlink:href="#m68fa2416cc" y="118.996092"/>
      </g>
     </g>
     <g id="text_12">
      <!-- 6 -->
      <g transform="translate(25.6275 122.795311)scale(0.1 -0.1)">
       <use xlink:href="#DejaVuSans-54"/>
      </g>
     </g>
    </g>
    <g id="ytick_5">
     <g id="line2d_12">
      <g>
       <use style="stroke:#000000;stroke-width:0.8;" x="38.99" xlink:href="#m68fa2416cc" y="62.114183"/>
      </g>
     </g>
     <g id="text_13">
      <!-- 8 -->
      <defs>
       <path d="M 31.78125 34.625 
Q 24.75 34.625 20.71875 30.859375 
Q 16.703125 27.09375 16.703125 20.515625 
Q 16.703125 13.921875 20.71875 10.15625 
Q 24.75 6.390625 31.78125 6.390625 
Q 38.8125 6.390625 42.859375 10.171875 
Q 46.921875 13.96875 46.921875 20.515625 
Q 46.921875 27.09375 42.890625 30.859375 
Q 38.875 34.625 31.78125 34.625 
z
M 21.921875 38.8125 
Q 15.578125 40.375 12.03125 44.71875 
Q 8.5 49.078125 8.5 55.328125 
Q 8.5 64.0625 14.71875 69.140625 
Q 20.953125 74.21875 31.78125 74.21875 
Q 42.671875 74.21875 48.875 69.140625 
Q 55.078125 64.0625 55.078125 55.328125 
Q 55.078125 49.078125 51.53125 44.71875 
Q 48 40.375 41.703125 38.8125 
Q 48.828125 37.15625 52.796875 32.3125 
Q 56.78125 27.484375 56.78125 20.515625 
Q 56.78125 9.90625 50.3125 4.234375 
Q 43.84375 -1.421875 31.78125 -1.421875 
Q 19.734375 -1.421875 13.25 4.234375 
Q 6.78125 9.90625 6.78125 20.515625 
Q 6.78125 27.484375 10.78125 32.3125 
Q 14.796875 37.15625 21.921875 38.8125 
z
M 18.3125 54.390625 
Q 18.3125 48.734375 21.84375 45.5625 
Q 25.390625 42.390625 31.78125 42.390625 
Q 38.140625 42.390625 41.71875 45.5625 
Q 45.3125 48.734375 45.3125 54.390625 
Q 45.3125 60.0625 41.71875 63.234375 
Q 38.140625 66.40625 31.78125 66.40625 
Q 25.390625 66.40625 21.84375 63.234375 
Q 18.3125 60.0625 18.3125 54.390625 
z
" id="DejaVuSans-56"/>
      </defs>
      <g transform="translate(25.6275 65.913402)scale(0.1 -0.1)">
       <use xlink:href="#DejaVuSans-56"/>
      </g>
     </g>
    </g>
    <g id="text_14">
     <!-- P (mM) -->
     <defs>
      <path d="M 9.1875 72.90625 
L 40.375 72.90625 
Q 54.296875 72.90625 61.734375 66.71875 
Q 69.1875 60.546875 69.1875 49.125 
Q 69.1875 37.640625 61.734375 31.46875 
Q 54.296875 25.296875 40.375 25.296875 
L 27.984375 25.296875 
L 27.984375 0 
L 9.1875 0 
z
M 27.984375 59.28125 
L 27.984375 38.921875 
L 38.375 38.921875 
Q 43.84375 38.921875 46.828125 41.578125 
Q 49.8125 44.234375 49.8125 49.125 
Q 49.8125 54 46.828125 56.640625 
Q 43.84375 59.28125 38.375 59.28125 
z
" id="DejaVuSans-Bold-80"/>
      <path d="M 9.1875 72.90625 
L 33.109375 72.90625 
L 49.703125 33.890625 
L 66.40625 72.90625 
L 90.28125 72.90625 
L 90.28125 0 
L 72.515625 0 
L 72.515625 53.328125 
L 55.71875 14.015625 
L 43.796875 14.015625 
L 27 53.328125 
L 27 0 
L 9.1875 0 
z
" id="DejaVuSans-Bold-77"/>
     </defs>
     <g transform="translate(19.131875 181.054062)rotate(-90)scale(0.12 -0.12)">
      <use xlink:href="#DejaVuSans-Bold-80"/>
      <use x="73.291016" xlink:href="#DejaVuSans-Bold-32"/>
      <use x="108.105469" xlink:href="#DejaVuSans-Bold-40"/>
      <use x="153.808594" xlink:href="#DejaVuSans-Bold-109"/>
      <use x="258.007812" xlink:href="#DejaVuSans-Bold-77"/>
      <use x="357.519531" xlink:href="#DejaVuSans-Bold-41"/>
     </g>
    </g>
   </g>
   <g id="line2d_13">
    <defs>
     <path d="M 0 3 
C 0.795609 3 1.55874 2.683901 2.12132 2.12132 
C 2.683901 1.55874 3 0.795609 3 0 
C 3 -0.795609 2.683901 -1.55874 2.12132 -2.12132 
C 1.55874 -2.683901 0.795609 -3 0 -3 
C -0.795609 -3 -1.55874 -2.683901 -2.12132 -2.12132 
C -2.683901 -1.55874 -3 -0.795609 -3 0 
C -3 0.795609 -2.683901 1.55874 -2.12132 2.12132 
C -1.55874 2.683901 -0.795609 3 0 3 
z
" id="m57b82b91d2" style="stroke:#1f77b4;"/>
    </defs>
    <g clip-path="url(#p670bc82316)">
     <use style="fill-opacity:0;stroke:#1f77b4;" x="57.672273" xlink:href="#m57b82b91d2" y="289.641818"/>
     <use style="fill-opacity:0;stroke:#1f77b4;" x="57.830478" xlink:href="#m57b82b91d2" y="275.401388"/>
     <use style="fill-opacity:0;stroke:#1f77b4;" x="70.422124" xlink:href="#m57b82b91d2" y="251.711629"/>
     <use style="fill-opacity:0;stroke:#1f77b4;" x="82.866449" xlink:href="#m57b82b91d2" y="239.982039"/>
     <use style="fill-opacity:0;stroke:#1f77b4;" x="95.310775" xlink:href="#m57b82b91d2" y="228.261182"/>
     <use style="fill-opacity:0;stroke:#1f77b4;" x="145.090358" xlink:href="#m57b82b91d2" y="216.499311"/>
     <use style="fill-opacity:0;stroke:#1f77b4;" x="182.424268" xlink:href="#m57b82b91d2" y="204.762336"/>
     <use style="fill-opacity:0;stroke:#1f77b4;" x="219.757971" xlink:href="#m57b82b91d2" y="193.053618"/>
     <use style="fill-opacity:0;stroke:#1f77b4;" x="257.092503" xlink:href="#m57b82b91d2" y="192.890719"/>
     <use style="fill-opacity:0;stroke:#1f77b4;" x="294.425998" xlink:href="#m57b82b91d2" y="192.223466"/>
     <use style="fill-opacity:0;stroke:#1f77b4;" x="331.76053" xlink:href="#m57b82b91d2" y="189.848671"/>
     <use style="fill-opacity:0;stroke:#1f77b4;" x="369.095477" xlink:href="#m57b82b91d2" y="187.533788"/>
     <use style="fill-opacity:0;stroke:#1f77b4;" x="406.428869" xlink:href="#m57b82b91d2" y="185.066934"/>
     <use style="fill-opacity:0;stroke:#1f77b4;" x="431.317727" xlink:href="#m57b82b91d2" y="179.461445"/>
    </g>
   </g>
   <g id="line2d_14">
    <path clip-path="url(#p670bc82316)" d="M 57.672273 288.788913 
L 57.830478 285.70488 
L 70.422124 238.721878 
L 82.866449 226.99226 
L 95.310775 219.941544 
L 145.090358 204.957722 
L 182.424268 198.589974 
L 219.757971 193.892108 
L 257.092503 190.167721 
L 294.425998 187.08194 
L 331.76053 184.447363 
L 369.095477 182.148745 
L 406.428869 180.110113 
L 431.317727 178.868644 
" style="fill:none;stroke:#ff7f0e;stroke-linecap:square;stroke-width:1.5;"/>
   </g>
   <g id="line2d_15">
    <defs>
     <path d="M -3 3 
L 3 3 
L 3 -3 
L -3 -3 
z
" id="m42042cf046" style="stroke:#2ca02c;stroke-linejoin:miter;"/>
    </defs>
    <g clip-path="url(#p670bc82316)">
     <use style="fill-opacity:0;stroke:#2ca02c;stroke-linejoin:miter;" x="57.672273" xlink:href="#m42042cf046" y="289.641818"/>
     <use style="fill-opacity:0;stroke:#2ca02c;stroke-linejoin:miter;" x="57.849761" xlink:href="#m42042cf046" y="275.4165"/>
     <use style="fill-opacity:0;stroke:#2ca02c;stroke-linejoin:miter;" x="59.052269" xlink:href="#m42042cf046" y="261.090345"/>
     <use style="fill-opacity:0;stroke:#2ca02c;stroke-linejoin:miter;" x="61.240087" xlink:href="#m42042cf046" y="249.326972"/>
     <use style="fill-opacity:0;stroke:#2ca02c;stroke-linejoin:miter;" x="62.383708" xlink:href="#m42042cf046" y="237.600536"/>
     <use style="fill-opacity:0;stroke:#2ca02c;stroke-linejoin:miter;" x="63.527017" xlink:href="#m42042cf046" y="225.875941"/>
     <use style="fill-opacity:0;stroke:#2ca02c;stroke-linejoin:miter;" x="67.177044" xlink:href="#m42042cf046" y="214.228365"/>
     <use style="fill-opacity:0;stroke:#2ca02c;stroke-linejoin:miter;" x="75.473607" xlink:href="#m42042cf046" y="202.55304"/>
     <use style="fill-opacity:0;stroke:#2ca02c;stroke-linejoin:miter;" x="84.28864" xlink:href="#m42042cf046" y="190.683591"/>
     <use style="fill-opacity:0;stroke:#2ca02c;stroke-linejoin:miter;" x="98.289103" xlink:href="#m42042cf046" y="178.978563"/>
     <use style="fill-opacity:0;stroke:#2ca02c;stroke-linejoin:miter;" x="115.400076" xlink:href="#m42042cf046" y="167.379818"/>
     <use style="fill-opacity:0;stroke:#2ca02c;stroke-linejoin:miter;" x="131.474835" xlink:href="#m42042cf046" y="155.484479"/>
     <use style="fill-opacity:0;stroke:#2ca02c;stroke-linejoin:miter;" x="157.401256" xlink:href="#m42042cf046" y="143.639988"/>
     <use style="fill-opacity:0;stroke:#2ca02c;stroke-linejoin:miter;" x="181.253693" xlink:href="#m42042cf046" y="142.819894"/>
     <use style="fill-opacity:0;stroke:#2ca02c;stroke-linejoin:miter;" x="194.734959" xlink:href="#m42042cf046" y="131.960179"/>
     <use style="fill-opacity:0;stroke:#2ca02c;stroke-linejoin:miter;" x="264.046703" xlink:href="#m42042cf046" y="127.263779"/>
     <use style="fill-opacity:0;stroke:#2ca02c;stroke-linejoin:miter;" x="302.685342" xlink:href="#m42042cf046" y="120.177147"/>
     <use style="fill-opacity:0;stroke:#2ca02c;stroke-linejoin:miter;" x="337.551101" xlink:href="#m42042cf046" y="116.653973"/>
     <use style="fill-opacity:0;stroke:#2ca02c;stroke-linejoin:miter;" x="385.130425" xlink:href="#m42042cf046" y="108.433234"/>
     <use style="fill-opacity:0;stroke:#2ca02c;stroke-linejoin:miter;" x="425.574639" xlink:href="#m42042cf046" y="96.68932"/>
    </g>
   </g>
   <g id="line2d_16">
    <path clip-path="url(#p670bc82316)" d="M 57.672273 288.739084 
L 57.849761 284.922816 
L 59.052269 266.427998 
L 61.240087 247.02927 
L 62.383708 240.034579 
L 63.527017 234.223943 
L 67.177044 220.356436 
L 75.473607 201.008847 
L 84.28864 188.049327 
L 98.289103 174.12487 
L 115.400076 162.374777 
L 131.474835 154.098621 
L 157.401256 143.900459 
L 181.253693 136.607362 
L 194.734959 133.079036 
L 264.046703 119.097047 
L 302.685342 113.220192 
L 337.551101 108.65992 
L 385.130425 103.274269 
L 425.574639 99.276908 
" style="fill:none;stroke:#d62728;stroke-linecap:square;stroke-width:1.5;"/>
   </g>
   <g id="line2d_17">
    <defs>
     <path d="M 0 -3 
L -3 3 
L 3 3 
z
" id="m40396ef468" style="stroke:#9467bd;stroke-linejoin:miter;"/>
    </defs>
    <g clip-path="url(#p670bc82316)">
     <use style="fill-opacity:0;stroke:#9467bd;stroke-linejoin:miter;" x="57.672273" xlink:href="#m40396ef468" y="289.641818"/>
     <use style="fill-opacity:0;stroke:#9467bd;stroke-linejoin:miter;" x="58.934288" xlink:href="#m40396ef468" y="270.612592"/>
     <use style="fill-opacity:0;stroke:#9467bd;stroke-linejoin:miter;" x="62.266557" xlink:href="#m40396ef468" y="247.086916"/>
     <use style="fill-opacity:0;stroke:#9467bd;stroke-linejoin:miter;" x="63.409763" xlink:href="#m40396ef468" y="235.347048"/>
     <use style="fill-opacity:0;stroke:#9467bd;stroke-linejoin:miter;" x="64.553072" xlink:href="#m40396ef468" y="223.615156"/>
     <use style="fill-opacity:0;stroke:#9467bd;stroke-linejoin:miter;" x="65.696382" xlink:href="#m40396ef468" y="211.889387"/>
     <use style="fill-opacity:0;stroke:#9467bd;stroke-linejoin:miter;" x="66.753643" xlink:href="#m40396ef468" y="200.170533"/>
     <use style="fill-opacity:0;stroke:#9467bd;stroke-linejoin:miter;" x="71.420498" xlink:href="#m40396ef468" y="188.443872"/>
     <use style="fill-opacity:0;stroke:#9467bd;stroke-linejoin:miter;" x="78.680016" xlink:href="#m40396ef468" y="176.711428"/>
     <use style="fill-opacity:0;stroke:#9467bd;stroke-linejoin:miter;" x="86.976579" xlink:href="#m40396ef468" y="164.97557"/>
     <use style="fill-opacity:0;stroke:#9467bd;stroke-linejoin:miter;" x="95.273038" xlink:href="#m40396ef468" y="153.27331"/>
     <use style="fill-opacity:0;stroke:#9467bd;stroke-linejoin:miter;" x="106.681148" xlink:href="#m40396ef468" y="141.522739"/>
     <use style="fill-opacity:0;stroke:#9467bd;stroke-linejoin:miter;" x="122.755907" xlink:href="#m40396ef468" y="129.815796"/>
     <use style="fill-opacity:0;stroke:#9467bd;stroke-linejoin:miter;" x="137.792688" xlink:href="#m40396ef468" y="117.9976"/>
     <use style="fill-opacity:0;stroke:#9467bd;stroke-linejoin:miter;" x="158.015417" xlink:href="#m40396ef468" y="106.247373"/>
     <use style="fill-opacity:0;stroke:#9467bd;stroke-linejoin:miter;" x="184.979194" xlink:href="#m40396ef468" y="94.565381"/>
     <use style="fill-opacity:0;stroke:#9467bd;stroke-linejoin:miter;" x="214.016127" xlink:href="#m40396ef468" y="82.762575"/>
     <use style="fill-opacity:0;stroke:#9467bd;stroke-linejoin:miter;" x="247.721055" xlink:href="#m40396ef468" y="71.006538"/>
     <use style="fill-opacity:0;stroke:#9467bd;stroke-linejoin:miter;" x="282.980876" xlink:href="#m40396ef468" y="59.261422"/>
     <use style="fill-opacity:0;stroke:#9467bd;stroke-linejoin:miter;" x="316.685597" xlink:href="#m40396ef468" y="47.535812"/>
     <use style="fill-opacity:0;stroke:#9467bd;stroke-linejoin:miter;" x="360.758896" xlink:href="#m40396ef468" y="35.78413"/>
     <use style="fill-opacity:0;stroke:#9467bd;stroke-linejoin:miter;" x="391.352173" xlink:href="#m40396ef468" y="24.078182"/>
    </g>
   </g>
   <g id="line2d_18">
    <path clip-path="url(#p670bc82316)" d="M 57.672273 288.720901 
L 58.934288 265.521666 
L 62.266557 231.100445 
L 63.409763 223.169482 
L 64.553072 216.308773 
L 65.696382 210.263962 
L 66.753643 205.248696 
L 71.420498 187.609179 
L 78.680016 168.501181 
L 86.976579 152.936652 
L 95.273038 141.033924 
L 106.681148 128.202316 
L 122.755907 114.3037 
L 137.792688 104.035605 
L 158.015417 92.853507 
L 184.979194 80.969999 
L 214.016127 70.672588 
L 247.721055 60.860856 
L 282.980876 52.289268 
L 316.685597 45.257419 
L 360.758896 37.321425 
L 391.352173 32.460381 
" style="fill:none;stroke:#8c564b;stroke-linecap:square;stroke-width:1.5;"/>
   </g>
   <g id="patch_3">
    <path d="M 38.99 302.92 
L 38.99 10.8 
" style="fill:none;stroke:#000000;stroke-linecap:square;stroke-linejoin:miter;stroke-width:0.8;"/>
   </g>
   <g id="patch_4">
    <path d="M 450 302.92 
L 450 10.8 
" style="fill:none;stroke:#000000;stroke-linecap:square;stroke-linejoin:miter;stroke-width:0.8;"/>
   </g>
   <g id="patch_5">
    <path d="M 38.99 302.92 
L 450 302.92 
" style="fill:none;stroke:#000000;stroke-linecap:square;stroke-linejoin:miter;stroke-width:0.8;"/>
   </g>
   <g id="patch_6">
    <path d="M 38.99 10.8 
L 450 10.8 
" style="fill:none;stroke:#000000;stroke-linecap:square;stroke-linejoin:miter;stroke-width:0.8;"/>
   </g>
   <g id="legend_1">
    <g id="patch_7">
     <path d="M 45.99 62.834375 
L 128.165 62.834375 
Q 130.165 62.834375 130.165 60.834375 
L 130.165 17.8 
Q 130.165 15.8 128.165 15.8 
L 45.99 15.8 
Q 43.99 15.8 43.99 17.8 
L 43.99 60.834375 
Q 43.99 62.834375 45.99 62.834375 
z
" style="fill:#ffffff;opacity:0.8;stroke:#cccccc;stroke-linejoin:miter;"/>
    </g>
    <g id="line2d_19"/>
    <g id="line2d_20">
     <g>
      <use style="fill-opacity:0;stroke:#1f77b4;" x="57.99" xlink:href="#m57b82b91d2" y="23.898438"/>
     </g>
    </g>
    <g id="text_15">
     <!-- 45.5 mM -->
     <defs>
      <path d="M 10.6875 12.40625 
L 21 12.40625 
L 21 0 
L 10.6875 0 
z
" id="DejaVuSans-46"/>
      <path id="DejaVuSans-32"/>
      <path d="M 52 44.1875 
Q 55.375 50.25 60.0625 53.125 
Q 64.75 56 71.09375 56 
Q 79.640625 56 84.28125 50.015625 
Q 88.921875 44.046875 88.921875 33.015625 
L 88.921875 0 
L 79.890625 0 
L 79.890625 32.71875 
Q 79.890625 40.578125 77.09375 44.375 
Q 74.3125 48.1875 68.609375 48.1875 
Q 61.625 48.1875 57.5625 43.546875 
Q 53.515625 38.921875 53.515625 30.90625 
L 53.515625 0 
L 44.484375 0 
L 44.484375 32.71875 
Q 44.484375 40.625 41.703125 44.40625 
Q 38.921875 48.1875 33.109375 48.1875 
Q 26.21875 48.1875 22.15625 43.53125 
Q 18.109375 38.875 18.109375 30.90625 
L 18.109375 0 
L 9.078125 0 
L 9.078125 54.6875 
L 18.109375 54.6875 
L 18.109375 46.1875 
Q 21.1875 51.21875 25.484375 53.609375 
Q 29.78125 56 35.6875 56 
Q 41.65625 56 45.828125 52.96875 
Q 50 49.953125 52 44.1875 
z
" id="DejaVuSans-109"/>
      <path d="M 9.8125 72.90625 
L 24.515625 72.90625 
L 43.109375 23.296875 
L 61.8125 72.90625 
L 76.515625 72.90625 
L 76.515625 0 
L 66.890625 0 
L 66.890625 64.015625 
L 48.09375 14.015625 
L 38.1875 14.015625 
L 19.390625 64.015625 
L 19.390625 0 
L 9.8125 0 
z
" id="DejaVuSans-77"/>
     </defs>
     <g transform="translate(75.99 27.398438)scale(0.1 -0.1)">
      <use xlink:href="#DejaVuSans-52"/>
      <use x="63.623047" xlink:href="#DejaVuSans-53"/>
      <use x="127.246094" xlink:href="#DejaVuSans-46"/>
      <use x="159.033203" xlink:href="#DejaVuSans-53"/>
      <use x="222.65625" xlink:href="#DejaVuSans-32"/>
      <use x="254.443359" xlink:href="#DejaVuSans-109"/>
      <use x="351.855469" xlink:href="#DejaVuSans-77"/>
     </g>
    </g>
    <g id="line2d_21"/>
    <g id="line2d_22">
     <g>
      <use style="fill-opacity:0;stroke:#2ca02c;stroke-linejoin:miter;" x="57.99" xlink:href="#m42042cf046" y="38.576563"/>
     </g>
    </g>
    <g id="text_16">
     <!-- 91.0 mM -->
     <defs>
      <path d="M 10.984375 1.515625 
L 10.984375 10.5 
Q 14.703125 8.734375 18.5 7.8125 
Q 22.3125 6.890625 25.984375 6.890625 
Q 35.75 6.890625 40.890625 13.453125 
Q 46.046875 20.015625 46.78125 33.40625 
Q 43.953125 29.203125 39.59375 26.953125 
Q 35.25 24.703125 29.984375 24.703125 
Q 19.046875 24.703125 12.671875 31.3125 
Q 6.296875 37.9375 6.296875 49.421875 
Q 6.296875 60.640625 12.9375 67.421875 
Q 19.578125 74.21875 30.609375 74.21875 
Q 43.265625 74.21875 49.921875 64.515625 
Q 56.59375 54.828125 56.59375 36.375 
Q 56.59375 19.140625 48.40625 8.859375 
Q 40.234375 -1.421875 26.421875 -1.421875 
Q 22.703125 -1.421875 18.890625 -0.6875 
Q 15.09375 0.046875 10.984375 1.515625 
z
M 30.609375 32.421875 
Q 37.25 32.421875 41.125 36.953125 
Q 45.015625 41.5 45.015625 49.421875 
Q 45.015625 57.28125 41.125 61.84375 
Q 37.25 66.40625 30.609375 66.40625 
Q 23.96875 66.40625 20.09375 61.84375 
Q 16.21875 57.28125 16.21875 49.421875 
Q 16.21875 41.5 20.09375 36.953125 
Q 23.96875 32.421875 30.609375 32.421875 
z
" id="DejaVuSans-57"/>
     </defs>
     <g transform="translate(75.99 42.076563)scale(0.1 -0.1)">
      <use xlink:href="#DejaVuSans-57"/>
      <use x="63.623047" xlink:href="#DejaVuSans-49"/>
      <use x="127.246094" xlink:href="#DejaVuSans-46"/>
      <use x="159.033203" xlink:href="#DejaVuSans-48"/>
      <use x="222.65625" xlink:href="#DejaVuSans-32"/>
      <use x="254.443359" xlink:href="#DejaVuSans-109"/>
      <use x="351.855469" xlink:href="#DejaVuSans-77"/>
     </g>
    </g>
    <g id="line2d_23"/>
    <g id="line2d_24">
     <g>
      <use style="fill-opacity:0;stroke:#9467bd;stroke-linejoin:miter;" x="57.99" xlink:href="#m40396ef468" y="53.254687"/>
     </g>
    </g>
    <g id="text_17">
     <!-- 136.5 mM -->
     <g transform="translate(75.99 56.754687)scale(0.1 -0.1)">
      <use xlink:href="#DejaVuSans-49"/>
      <use x="63.623047" xlink:href="#DejaVuSans-51"/>
      <use x="127.246094" xlink:href="#DejaVuSans-54"/>
      <use x="190.869141" xlink:href="#DejaVuSans-46"/>
      <use x="222.65625" xlink:href="#DejaVuSans-53"/>
      <use x="286.279297" xlink:href="#DejaVuSans-32"/>
      <use x="318.066406" xlink:href="#DejaVuSans-109"/>
      <use x="415.478516" xlink:href="#DejaVuSans-77"/>
     </g>
    </g>
   </g>
  </g>
 </g>
 <defs>
  <clipPath id="p670bc82316">
   <rect height="292.12" width="411.01" x="38.99" y="10.8"/>
  </clipPath>
 </defs>
</svg>
