<?xml version="1.0" encoding="utf-8" standalone="no"?>
<!DOCTYPE svg PUBLIC "-//W3C//DTD SVG 1.1//EN"
  "http://www.w3.org/Graphics/SVG/1.1/DTD/svg11.dtd">
<!-- Created with matplotlib (https://matplotlib.org/) -->
<svg height="345.6pt" version="1.1" viewBox="0 0 460.8 345.6" width="460.8pt" xmlns="http://www.w3.org/2000/svg" xmlns:xlink="http://www.w3.org/1999/xlink">
 <defs>
  <style type="text/css">
*{stroke-linecap:butt;stroke-linejoin:round;}
  </style>
 </defs>
 <g id="figure_1">
  <g id="patch_1">
   <path d="M 0 345.6 
L 460.8 345.6 
L 460.8 0 
L 0 0 
z
" style="fill:#ffffff;"/>
  </g>
  <g id="axes_1">
   <g id="patch_2">
    <path d="M 45.38 302.92 
L 450 302.92 
L 450 10.8 
L 45.38 10.8 
z
" style="fill:#ffffff;"/>
   </g>
   <g id="matplotlib.axis_1">
    <g id="xtick_1">
     <g id="line2d_1">
      <defs>
       <path d="M 0 0 
L 0 3.5 
" id="m7060921dbf" style="stroke:#000000;stroke-width:0.8;"/>
      </defs>
      <g>
       <use style="stroke:#000000;stroke-width:0.8;" x="63.771818" xlink:href="#m7060921dbf" y="302.92"/>
      </g>
     </g>
     <g id="text_1">
      <!-- 0 -->
      <defs>
       <path d="M 31.78125 66.40625 
Q 24.171875 66.40625 20.328125 58.90625 
Q 16.5 51.421875 16.5 36.375 
Q 16.5 21.390625 20.328125 13.890625 
Q 24.171875 6.390625 31.78125 6.390625 
Q 39.453125 6.390625 43.28125 13.890625 
Q 47.125 21.390625 47.125 36.375 
Q 47.125 51.421875 43.28125 58.90625 
Q 39.453125 66.40625 31.78125 66.40625 
z
M 31.78125 74.21875 
Q 44.046875 74.21875 50.515625 64.515625 
Q 56.984375 54.828125 56.984375 36.375 
Q 56.984375 17.96875 50.515625 8.265625 
Q 44.046875 -1.421875 31.78125 -1.421875 
Q 19.53125 -1.421875 13.0625 8.265625 
Q 6.59375 17.96875 6.59375 36.375 
Q 6.59375 54.828125 13.0625 64.515625 
Q 19.53125 74.21875 31.78125 74.21875 
z
" id="DejaVuSans-48"/>
      </defs>
      <g transform="translate(60.590568 317.518437)scale(0.1 -0.1)">
       <use xlink:href="#DejaVuSans-48"/>
      </g>
     </g>
    </g>
    <g id="xtick_2">
     <g id="line2d_2">
      <g>
       <use style="stroke:#000000;stroke-width:0.8;" x="113.931322" xlink:href="#m7060921dbf" y="302.92"/>
      </g>
     </g>
     <g id="text_2">
      <!-- 25 -->
      <defs>
       <path d="M 19.1875 8.296875 
L 53.609375 8.296875 
L 53.609375 0 
L 7.328125 0 
L 7.328125 8.296875 
Q 12.9375 14.109375 22.625 23.890625 
Q 32.328125 33.6875 34.8125 36.53125 
Q 39.546875 41.84375 41.421875 45.53125 
Q 43.3125 49.21875 43.3125 52.78125 
Q 43.3125 58.59375 39.234375 62.25 
Q 35.15625 65.921875 28.609375 65.921875 
Q 23.96875 65.921875 18.8125 64.3125 
Q 13.671875 62.703125 7.8125 59.421875 
L 7.8125 69.390625 
Q 13.765625 71.78125 18.9375 73 
Q 24.125 74.21875 28.421875 74.21875 
Q 39.75 74.21875 46.484375 68.546875 
Q 53.21875 62.890625 53.21875 53.421875 
Q 53.21875 48.921875 51.53125 44.890625 
Q 49.859375 40.875 45.40625 35.40625 
Q 44.1875 33.984375 37.640625 27.21875 
Q 31.109375 20.453125 19.1875 8.296875 
z
" id="DejaVuSans-50"/>
       <path d="M 10.796875 72.90625 
L 49.515625 72.90625 
L 49.515625 64.59375 
L 19.828125 64.59375 
L 19.828125 46.734375 
Q 21.96875 47.46875 24.109375 47.828125 
Q 26.265625 48.1875 28.421875 48.1875 
Q 40.625 48.1875 47.75 41.5 
Q 54.890625 34.8125 54.890625 23.390625 
Q 54.890625 11.625 47.5625 5.09375 
Q 40.234375 -1.421875 26.90625 -1.421875 
Q 22.3125 -1.421875 17.546875 -0.640625 
Q 12.796875 0.140625 7.71875 1.703125 
L 7.71875 11.625 
Q 12.109375 9.234375 16.796875 8.0625 
Q 21.484375 6.890625 26.703125 6.890625 
Q 35.15625 6.890625 40.078125 11.328125 
Q 45.015625 15.765625 45.015625 23.390625 
Q 45.015625 31 40.078125 35.4375 
Q 35.15625 39.890625 26.703125 39.890625 
Q 22.75 39.890625 18.8125 39.015625 
Q 14.890625 38.140625 10.796875 36.28125 
z
" id="DejaVuSans-53"/>
      </defs>
      <g transform="translate(107.568822 317.518437)scale(0.1 -0.1)">
       <use xlink:href="#DejaVuSans-50"/>
       <use x="63.623047" xlink:href="#DejaVuSans-53"/>
      </g>
     </g>
    </g>
    <g id="xtick_3">
     <g id="line2d_3">
      <g>
       <use style="stroke:#000000;stroke-width:0.8;" x="164.090826" xlink:href="#m7060921dbf" y="302.92"/>
      </g>
     </g>
     <g id="text_3">
      <!-- 50 -->
      <g transform="translate(157.728326 317.518437)scale(0.1 -0.1)">
       <use xlink:href="#DejaVuSans-53"/>
       <use x="63.623047" xlink:href="#DejaVuSans-48"/>
      </g>
     </g>
    </g>
    <g id="xtick_4">
     <g id="line2d_4">
      <g>
       <use style="stroke:#000000;stroke-width:0.8;" x="214.250331" xlink:href="#m7060921dbf" y="302.92"/>
      </g>
     </g>
     <g id="text_4">
      <!-- 75 -->
      <defs>
       <path d="M 8.203125 72.90625 
L 55.078125 72.90625 
L 55.078125 68.703125 
L 28.609375 0 
L 18.3125 0 
L 43.21875 64.59375 
L 8.203125 64.59375 
z
" id="DejaVuSans-55"/>
      </defs>
      <g transform="translate(207.887831 317.518437)scale(0.1 -0.1)">
       <use xlink:href="#DejaVuSans-55"/>
       <use x="63.623047" xlink:href="#DejaVuSans-53"/>
      </g>
     </g>
    </g>
    <g id="xtick_5">
     <g id="line2d_5">
      <g>
       <use style="stroke:#000000;stroke-width:0.8;" x="264.409835" xlink:href="#m7060921dbf" y="302.92"/>
      </g>
     </g>
     <g id="text_5">
      <!-- 100 -->
      <defs>
       <path d="M 12.40625 8.296875 
L 28.515625 8.296875 
L 28.515625 63.921875 
L 10.984375 60.40625 
L 10.984375 69.390625 
L 28.421875 72.90625 
L 38.28125 72.90625 
L 38.28125 8.296875 
L 54.390625 8.296875 
L 54.390625 0 
L 12.40625 0 
z
" id="DejaVuSans-49"/>
      </defs>
      <g transform="translate(254.866085 317.518437)scale(0.1 -0.1)">
       <use xlink:href="#DejaVuSans-49"/>
       <use x="63.623047" xlink:href="#DejaVuSans-48"/>
       <use x="127.246094" xlink:href="#DejaVuSans-48"/>
      </g>
     </g>
    </g>
    <g id="xtick_6">
     <g id="line2d_6">
      <g>
       <use style="stroke:#000000;stroke-width:0.8;" x="314.569339" xlink:href="#m7060921dbf" y="302.92"/>
      </g>
     </g>
     <g id="text_6">
      <!-- 125 -->
      <g transform="translate(305.025589 317.518437)scale(0.1 -0.1)">
       <use xlink:href="#DejaVuSans-49"/>
       <use x="63.623047" xlink:href="#DejaVuSans-50"/>
       <use x="127.246094" xlink:href="#DejaVuSans-53"/>
      </g>
     </g>
    </g>
    <g id="xtick_7">
     <g id="line2d_7">
      <g>
       <use style="stroke:#000000;stroke-width:0.8;" x="364.728843" xlink:href="#m7060921dbf" y="302.92"/>
      </g>
     </g>
     <g id="text_7">
      <!-- 150 -->
      <g transform="translate(355.185093 317.518437)scale(0.1 -0.1)">
       <use xlink:href="#DejaVuSans-49"/>
       <use x="63.623047" xlink:href="#DejaVuSans-53"/>
       <use x="127.246094" xlink:href="#DejaVuSans-48"/>
      </g>
     </g>
    </g>
    <g id="xtick_8">
     <g id="line2d_8">
      <g>
       <use style="stroke:#000000;stroke-width:0.8;" x="414.888347" xlink:href="#m7060921dbf" y="302.92"/>
      </g>
     </g>
     <g id="text_8">
      <!-- 175 -->
      <g transform="translate(405.344597 317.518437)scale(0.1 -0.1)">
       <use xlink:href="#DejaVuSans-49"/>
       <use x="63.623047" xlink:href="#DejaVuSans-55"/>
       <use x="127.246094" xlink:href="#DejaVuSans-53"/>
      </g>
     </g>
    </g>
    <g id="text_9">
     <!-- Time (min) -->
     <defs>
      <path d="M 0.484375 72.90625 
L 67.671875 72.90625 
L 67.671875 58.6875 
L 43.5 58.6875 
L 43.5 0 
L 24.703125 0 
L 24.703125 58.6875 
L 0.484375 58.6875 
z
" id="DejaVuSans-Bold-84"/>
      <path d="M 8.40625 54.6875 
L 25.875 54.6875 
L 25.875 0 
L 8.40625 0 
z
M 8.40625 75.984375 
L 25.875 75.984375 
L 25.875 61.71875 
L 8.40625 61.71875 
z
" id="DejaVuSans-Bold-105"/>
      <path d="M 59.078125 45.609375 
Q 62.40625 50.6875 66.96875 53.34375 
Q 71.53125 56 77 56 
Q 86.421875 56 91.359375 50.1875 
Q 96.296875 44.390625 96.296875 33.296875 
L 96.296875 0 
L 78.71875 0 
L 78.71875 28.515625 
Q 78.765625 29.15625 78.78125 29.828125 
Q 78.8125 30.515625 78.8125 31.78125 
Q 78.8125 37.59375 77.09375 40.203125 
Q 75.390625 42.828125 71.578125 42.828125 
Q 66.609375 42.828125 63.890625 38.71875 
Q 61.1875 34.625 61.078125 26.859375 
L 61.078125 0 
L 43.5 0 
L 43.5 28.515625 
Q 43.5 37.59375 41.9375 40.203125 
Q 40.375 42.828125 36.375 42.828125 
Q 31.34375 42.828125 28.609375 38.703125 
Q 25.875 34.578125 25.875 26.90625 
L 25.875 0 
L 8.296875 0 
L 8.296875 54.6875 
L 25.875 54.6875 
L 25.875 46.6875 
Q 29.109375 51.3125 33.28125 53.65625 
Q 37.453125 56 42.484375 56 
Q 48.140625 56 52.484375 53.265625 
Q 56.84375 50.53125 59.078125 45.609375 
z
" id="DejaVuSans-Bold-109"/>
      <path d="M 62.984375 27.484375 
L 62.984375 22.515625 
L 22.125 22.515625 
Q 22.75 16.359375 26.5625 13.28125 
Q 30.375 10.203125 37.203125 10.203125 
Q 42.71875 10.203125 48.5 11.84375 
Q 54.296875 13.484375 60.40625 16.796875 
L 60.40625 3.328125 
Q 54.203125 0.984375 48 -0.21875 
Q 41.796875 -1.421875 35.59375 -1.421875 
Q 20.75 -1.421875 12.515625 6.125 
Q 4.296875 13.671875 4.296875 27.296875 
Q 4.296875 40.671875 12.375 48.328125 
Q 20.453125 56 34.625 56 
Q 47.515625 56 55.25 48.234375 
Q 62.984375 40.484375 62.984375 27.484375 
z
M 45.015625 33.296875 
Q 45.015625 38.28125 42.109375 41.328125 
Q 39.203125 44.390625 34.515625 44.390625 
Q 29.4375 44.390625 26.265625 41.53125 
Q 23.09375 38.671875 22.3125 33.296875 
z
" id="DejaVuSans-Bold-101"/>
      <path id="DejaVuSans-Bold-32"/>
      <path d="M 37.703125 -13.1875 
L 23.1875 -13.1875 
Q 15.71875 -1.125 12.15625 9.734375 
Q 8.59375 20.609375 8.59375 31.296875 
Q 8.59375 42 12.171875 52.953125 
Q 15.765625 63.921875 23.1875 75.875 
L 37.703125 75.875 
Q 31.453125 64.3125 28.328125 53.25 
Q 25.203125 42.1875 25.203125 31.390625 
Q 25.203125 20.609375 28.296875 9.515625 
Q 31.390625 -1.5625 37.703125 -13.1875 
z
" id="DejaVuSans-Bold-40"/>
      <path d="M 63.375 33.296875 
L 63.375 0 
L 45.796875 0 
L 45.796875 5.421875 
L 45.796875 25.484375 
Q 45.796875 32.5625 45.484375 35.25 
Q 45.171875 37.9375 44.390625 39.203125 
Q 43.359375 40.921875 41.59375 41.875 
Q 39.84375 42.828125 37.59375 42.828125 
Q 32.125 42.828125 29 38.59375 
Q 25.875 34.375 25.875 26.90625 
L 25.875 0 
L 8.40625 0 
L 8.40625 54.6875 
L 25.875 54.6875 
L 25.875 46.6875 
Q 29.828125 51.46875 34.265625 53.734375 
Q 38.71875 56 44.09375 56 
Q 53.5625 56 58.46875 50.1875 
Q 63.375 44.390625 63.375 33.296875 
z
" id="DejaVuSans-Bold-110"/>
      <path d="M 8.015625 -13.1875 
Q 14.265625 -1.5625 17.390625 9.515625 
Q 20.515625 20.609375 20.515625 31.390625 
Q 20.515625 42.1875 17.390625 53.25 
Q 14.265625 64.3125 8.015625 75.875 
L 22.515625 75.875 
Q 29.9375 63.921875 33.515625 52.953125 
Q 37.109375 42 37.109375 31.296875 
Q 37.109375 20.609375 33.546875 9.734375 
Q 29.984375 -1.125 22.515625 -13.1875 
z
" id="DejaVuSans-Bold-41"/>
     </defs>
     <g transform="translate(211.064687 332.71625)scale(0.12 -0.12)">
      <use xlink:href="#DejaVuSans-Bold-84"/>
      <use x="68.212891" xlink:href="#DejaVuSans-Bold-105"/>
      <use x="102.490234" xlink:href="#DejaVuSans-Bold-109"/>
      <use x="206.689453" xlink:href="#DejaVuSans-Bold-101"/>
      <use x="274.511719" xlink:href="#DejaVuSans-Bold-32"/>
      <use x="309.326172" xlink:href="#DejaVuSans-Bold-40"/>
      <use x="355.029297" xlink:href="#DejaVuSans-Bold-109"/>
      <use x="459.228516" xlink:href="#DejaVuSans-Bold-105"/>
      <use x="493.505859" xlink:href="#DejaVuSans-Bold-110"/>
      <use x="564.697266" xlink:href="#DejaVuSans-Bold-41"/>
     </g>
    </g>
   </g>
   <g id="matplotlib.axis_2">
    <g id="ytick_1">
     <g id="line2d_9">
      <defs>
       <path d="M 0 0 
L -3.5 0 
" id="m62ef173c2e" style="stroke:#000000;stroke-width:0.8;"/>
      </defs>
      <g>
       <use style="stroke:#000000;stroke-width:0.8;" x="45.38" xlink:href="#m62ef173c2e" y="302.92"/>
      </g>
     </g>
     <g id="text_10">
      <!-- 0 -->
      <g transform="translate(32.0175 306.719219)scale(0.1 -0.1)">
       <use xlink:href="#DejaVuSans-48"/>
      </g>
     </g>
    </g>
    <g id="ytick_2">
     <g id="line2d_10">
      <g>
       <use style="stroke:#000000;stroke-width:0.8;" x="45.38" xlink:href="#m62ef173c2e" y="263.444324"/>
      </g>
     </g>
     <g id="text_11">
      <!-- 5 -->
      <g transform="translate(32.0175 267.243543)scale(0.1 -0.1)">
       <use xlink:href="#DejaVuSans-53"/>
      </g>
     </g>
    </g>
    <g id="ytick_3">
     <g id="line2d_11">
      <g>
       <use style="stroke:#000000;stroke-width:0.8;" x="45.38" xlink:href="#m62ef173c2e" y="223.968649"/>
      </g>
     </g>
     <g id="text_12">
      <!-- 10 -->
      <g transform="translate(25.655 227.767867)scale(0.1 -0.1)">
       <use xlink:href="#DejaVuSans-49"/>
       <use x="63.623047" xlink:href="#DejaVuSans-48"/>
      </g>
     </g>
    </g>
    <g id="ytick_4">
     <g id="line2d_12">
      <g>
       <use style="stroke:#000000;stroke-width:0.8;" x="45.38" xlink:href="#m62ef173c2e" y="184.492973"/>
      </g>
     </g>
     <g id="text_13">
      <!-- 15 -->
      <g transform="translate(25.655 188.292192)scale(0.1 -0.1)">
       <use xlink:href="#DejaVuSans-49"/>
       <use x="63.623047" xlink:href="#DejaVuSans-53"/>
      </g>
     </g>
    </g>
    <g id="ytick_5">
     <g id="line2d_13">
      <g>
       <use style="stroke:#000000;stroke-width:0.8;" x="45.38" xlink:href="#m62ef173c2e" y="145.017297"/>
      </g>
     </g>
     <g id="text_14">
      <!-- 20 -->
      <g transform="translate(25.655 148.816516)scale(0.1 -0.1)">
       <use xlink:href="#DejaVuSans-50"/>
       <use x="63.623047" xlink:href="#DejaVuSans-48"/>
      </g>
     </g>
    </g>
    <g id="ytick_6">
     <g id="line2d_14">
      <g>
       <use style="stroke:#000000;stroke-width:0.8;" x="45.38" xlink:href="#m62ef173c2e" y="105.541622"/>
      </g>
     </g>
     <g id="text_15">
      <!-- 25 -->
      <g transform="translate(25.655 109.34084)scale(0.1 -0.1)">
       <use xlink:href="#DejaVuSans-50"/>
       <use x="63.623047" xlink:href="#DejaVuSans-53"/>
      </g>
     </g>
    </g>
    <g id="ytick_7">
     <g id="line2d_15">
      <g>
       <use style="stroke:#000000;stroke-width:0.8;" x="45.38" xlink:href="#m62ef173c2e" y="66.065946"/>
      </g>
     </g>
     <g id="text_16">
      <!-- 30 -->
      <defs>
       <path d="M 40.578125 39.3125 
Q 47.65625 37.796875 51.625 33 
Q 55.609375 28.21875 55.609375 21.1875 
Q 55.609375 10.40625 48.1875 4.484375 
Q 40.765625 -1.421875 27.09375 -1.421875 
Q 22.515625 -1.421875 17.65625 -0.515625 
Q 12.796875 0.390625 7.625 2.203125 
L 7.625 11.71875 
Q 11.71875 9.328125 16.59375 8.109375 
Q 21.484375 6.890625 26.8125 6.890625 
Q 36.078125 6.890625 40.9375 10.546875 
Q 45.796875 14.203125 45.796875 21.1875 
Q 45.796875 27.640625 41.28125 31.265625 
Q 36.765625 34.90625 28.71875 34.90625 
L 20.21875 34.90625 
L 20.21875 43.015625 
L 29.109375 43.015625 
Q 36.375 43.015625 40.234375 45.921875 
Q 44.09375 48.828125 44.09375 54.296875 
Q 44.09375 59.90625 40.109375 62.90625 
Q 36.140625 65.921875 28.71875 65.921875 
Q 24.65625 65.921875 20.015625 65.03125 
Q 15.375 64.15625 9.8125 62.3125 
L 9.8125 71.09375 
Q 15.4375 72.65625 20.34375 73.4375 
Q 25.25 74.21875 29.59375 74.21875 
Q 40.828125 74.21875 47.359375 69.109375 
Q 53.90625 64.015625 53.90625 55.328125 
Q 53.90625 49.265625 50.4375 45.09375 
Q 46.96875 40.921875 40.578125 39.3125 
z
" id="DejaVuSans-51"/>
      </defs>
      <g transform="translate(25.655 69.865165)scale(0.1 -0.1)">
       <use xlink:href="#DejaVuSans-51"/>
       <use x="63.623047" xlink:href="#DejaVuSans-48"/>
      </g>
     </g>
    </g>
    <g id="ytick_8">
     <g id="line2d_16">
      <g>
       <use style="stroke:#000000;stroke-width:0.8;" x="45.38" xlink:href="#m62ef173c2e" y="26.59027"/>
      </g>
     </g>
     <g id="text_17">
      <!-- 35 -->
      <g transform="translate(25.655 30.389489)scale(0.1 -0.1)">
       <use xlink:href="#DejaVuSans-51"/>
       <use x="63.623047" xlink:href="#DejaVuSans-53"/>
      </g>
     </g>
    </g>
    <g id="text_18">
     <!-- P (mM) -->
     <defs>
      <path d="M 9.1875 72.90625 
L 40.375 72.90625 
Q 54.296875 72.90625 61.734375 66.71875 
Q 69.1875 60.546875 69.1875 49.125 
Q 69.1875 37.640625 61.734375 31.46875 
Q 54.296875 25.296875 40.375 25.296875 
L 27.984375 25.296875 
L 27.984375 0 
L 9.1875 0 
z
M 27.984375 59.28125 
L 27.984375 38.921875 
L 38.375 38.921875 
Q 43.84375 38.921875 46.828125 41.578125 
Q 49.8125 44.234375 49.8125 49.125 
Q 49.8125 54 46.828125 56.640625 
Q 43.84375 59.28125 38.375 59.28125 
z
" id="DejaVuSans-Bold-80"/>
      <path d="M 9.1875 72.90625 
L 33.109375 72.90625 
L 49.703125 33.890625 
L 66.40625 72.90625 
L 90.28125 72.90625 
L 90.28125 0 
L 72.515625 0 
L 72.515625 53.328125 
L 55.71875 14.015625 
L 43.796875 14.015625 
L 27 53.328125 
L 27 0 
L 9.1875 0 
z
" id="DejaVuSans-Bold-77"/>
     </defs>
     <g transform="translate(19.159375 181.054062)rotate(-90)scale(0.12 -0.12)">
      <use xlink:href="#DejaVuSans-Bold-80"/>
      <use x="73.291016" xlink:href="#DejaVuSans-Bold-32"/>
      <use x="108.105469" xlink:href="#DejaVuSans-Bold-40"/>
      <use x="153.808594" xlink:href="#DejaVuSans-Bold-109"/>
      <use x="258.007812" xlink:href="#DejaVuSans-Bold-77"/>
      <use x="357.519531" xlink:href="#DejaVuSans-Bold-41"/>
     </g>
    </g>
   </g>
   <g id="line2d_17">
    <defs>
     <path d="M 0 3 
C 0.795609 3 1.55874 2.683901 2.12132 2.12132 
C 2.683901 1.55874 3 0.795609 3 0 
C 3 -0.795609 2.683901 -1.55874 2.12132 -2.12132 
C 1.55874 -2.683901 0.795609 -3 0 -3 
C -0.795609 -3 -1.55874 -2.683901 -2.12132 -2.12132 
C -2.683901 -1.55874 -3 -0.795609 -3 0 
C -3 0.795609 -2.683901 1.55874 -2.12132 2.12132 
C -1.55874 2.683901 -0.795609 3 0 3 
z
" id="mf917669601" style="stroke:#1f77b4;"/>
    </defs>
    <g clip-path="url(#p953fc3623c)">
     <use style="fill-opacity:0;stroke:#1f77b4;" x="63.771818" xlink:href="#mf917669601" y="302.92"/>
     <use style="fill-opacity:0;stroke:#1f77b4;" x="77.482083" xlink:href="#mf917669601" y="283.438933"/>
     <use style="fill-opacity:0;stroke:#1f77b4;" x="92.529934" xlink:href="#mf917669601" y="265.280636"/>
     <use style="fill-opacity:0;stroke:#1f77b4;" x="117.442488" xlink:href="#mf917669601" y="264.775653"/>
     <use style="fill-opacity:0;stroke:#1f77b4;" x="142.355041" xlink:href="#mf917669601" y="264.293054"/>
     <use style="fill-opacity:0;stroke:#1f77b4;" x="167.267595" xlink:href="#mf917669601" y="263.839727"/>
     <use style="fill-opacity:0;stroke:#1f77b4;" x="191.845752" xlink:href="#mf917669601" y="263.391526"/>
     <use style="fill-opacity:0;stroke:#1f77b4;" x="216.758306" xlink:href="#mf917669601" y="262.971081"/>
     <use style="fill-opacity:0;stroke:#1f77b4;" x="241.67086" xlink:href="#mf917669601" y="262.516639"/>
     <use style="fill-opacity:0;stroke:#1f77b4;" x="266.583413" xlink:href="#mf917669601" y="262.13013"/>
     <use style="fill-opacity:0;stroke:#1f77b4;" x="291.328769" xlink:href="#mf917669601" y="261.728559"/>
     <use style="fill-opacity:0;stroke:#1f77b4;" x="316.241322" xlink:href="#mf917669601" y="261.259266"/>
     <use style="fill-opacity:0;stroke:#1f77b4;" x="341.153876" xlink:href="#mf917669601" y="260.855449"/>
     <use style="fill-opacity:0;stroke:#1f77b4;" x="366.06643" xlink:href="#mf917669601" y="260.418894"/>
     <use style="fill-opacity:0;stroke:#1f77b4;" x="390.978983" xlink:href="#mf917669601" y="260.014588"/>
     <use style="fill-opacity:0;stroke:#1f77b4;" x="415.891537" xlink:href="#mf917669601" y="259.578361"/>
    </g>
   </g>
   <g id="line2d_18">
    <path clip-path="url(#p953fc3623c)" d="M 63.771818 302.92 
L 66.61419 284.816126 
L 67.61738 283.20459 
L 68.787769 281.776575 
L 70.125355 280.499117 
L 71.797339 279.231542 
L 73.803719 278.016994 
L 76.144496 276.872789 
L 78.986868 275.742458 
L 82.330835 274.654933 
L 86.510793 273.541702 
L 91.526744 272.448183 
L 97.545884 271.370564 
L 104.902612 270.287945 
L 113.764124 269.215483 
L 124.632017 268.133768 
L 137.673488 267.065719 
L 153.557331 265.99443 
L 172.952339 264.917981 
L 196.360107 263.848657 
L 224.783826 262.779247 
L 259.393884 261.707076 
L 301.360669 260.636706 
L 352.356165 259.565751 
L 414.219554 258.495937 
L 431.608182 258.229185 
L 431.608182 258.229185 
" style="fill:none;stroke:#ff7f0e;stroke-linecap:square;stroke-width:1.5;"/>
   </g>
   <g id="line2d_19">
    <defs>
     <path d="M -3 3 
L 3 3 
L 3 -3 
L -3 -3 
z
" id="m3923752244" style="stroke:#2ca02c;stroke-linejoin:miter;"/>
    </defs>
    <g clip-path="url(#p953fc3623c)">
     <use style="fill-opacity:0;stroke:#2ca02c;stroke-linejoin:miter;" x="63.771818" xlink:href="#m3923752244" y="302.92"/>
     <use style="fill-opacity:0;stroke:#2ca02c;stroke-linejoin:miter;" x="75.141306" xlink:href="#m3923752244" y="280.860173"/>
     <use style="fill-opacity:0;stroke:#2ca02c;stroke-linejoin:miter;" x="77.983678" xlink:href="#m3923752244" y="255.96872"/>
     <use style="fill-opacity:0;stroke:#2ca02c;stroke-linejoin:miter;" x="85.340405" xlink:href="#m3923752244" y="234.504638"/>
     <use style="fill-opacity:0;stroke:#2ca02c;stroke-linejoin:miter;" x="109.416967" xlink:href="#m3923752244" y="231.775714"/>
     <use style="fill-opacity:0;stroke:#2ca02c;stroke-linejoin:miter;" x="134.329521" xlink:href="#m3923752244" y="230.924907"/>
     <use style="fill-opacity:0;stroke:#2ca02c;stroke-linejoin:miter;" x="159.074876" xlink:href="#m3923752244" y="230.609597"/>
     <use style="fill-opacity:0;stroke:#2ca02c;stroke-linejoin:miter;" x="183.820231" xlink:href="#m3923752244" y="230.416757"/>
     <use style="fill-opacity:0;stroke:#2ca02c;stroke-linejoin:miter;" x="208.398388" xlink:href="#m3923752244" y="229.637475"/>
     <use style="fill-opacity:0;stroke:#2ca02c;stroke-linejoin:miter;" x="232.976545" xlink:href="#m3923752244" y="229.416061"/>
     <use style="fill-opacity:0;stroke:#2ca02c;stroke-linejoin:miter;" x="257.554702" xlink:href="#m3923752244" y="229.145884"/>
     <use style="fill-opacity:0;stroke:#2ca02c;stroke-linejoin:miter;" x="282.13286" xlink:href="#m3923752244" y="228.331348"/>
     <use style="fill-opacity:0;stroke:#2ca02c;stroke-linejoin:miter;" x="306.37662" xlink:href="#m3923752244" y="228.194287"/>
     <use style="fill-opacity:0;stroke:#2ca02c;stroke-linejoin:miter;" x="330.954777" xlink:href="#m3923752244" y="227.821027"/>
     <use style="fill-opacity:0;stroke:#2ca02c;stroke-linejoin:miter;" x="355.532934" xlink:href="#m3923752244" y="227.246679"/>
     <use style="fill-opacity:0;stroke:#2ca02c;stroke-linejoin:miter;" x="380.278289" xlink:href="#m3923752244" y="226.989326"/>
     <use style="fill-opacity:0;stroke:#2ca02c;stroke-linejoin:miter;" x="404.689248" xlink:href="#m3923752244" y="226.275356"/>
     <use style="fill-opacity:0;stroke:#2ca02c;stroke-linejoin:miter;" x="429.267405" xlink:href="#m3923752244" y="225.89929"/>
    </g>
   </g>
   <g id="line2d_20">
    <path clip-path="url(#p953fc3623c)" d="M 63.771818 302.92 
L 64.106215 284.868524 
L 64.440612 279.197074 
L 64.942207 274.385452 
L 65.611 270.407416 
L 66.446992 267.069259 
L 67.282983 264.630477 
L 68.286174 262.367607 
L 69.456562 260.285988 
L 70.794149 258.373886 
L 72.298934 256.614271 
L 73.970917 254.989666 
L 75.977298 253.358651 
L 78.318074 251.763963 
L 80.993248 250.228541 
L 84.002818 248.762935 
L 87.513983 247.306036 
L 91.526744 245.883911 
L 96.208298 244.464002 
L 101.725843 243.032595 
L 108.07938 241.621944 
L 115.436107 240.221679 
L 123.963223 238.828929 
L 133.995124 237.423333 
L 145.53181 236.036201 
L 159.074876 234.638295 
L 174.791521 233.245998 
L 193.01614 231.859517 
L 214.250331 230.471864 
L 238.995686 229.082964 
L 267.753802 227.696525 
L 301.360669 226.305079 
L 340.485083 224.914222 
L 385.963033 223.52585 
L 431.608182 222.316925 
L 431.608182 222.316925 
" style="fill:none;stroke:#d62728;stroke-linecap:square;stroke-width:1.5;"/>
   </g>
   <g id="line2d_21">
    <defs>
     <path d="M 0 -3 
L -3 3 
L 3 3 
z
" id="m9c03d42af2" style="stroke:#9467bd;stroke-linejoin:miter;"/>
    </defs>
    <g clip-path="url(#p953fc3623c)">
     <use style="fill-opacity:0;stroke:#9467bd;stroke-linejoin:miter;" x="63.771818" xlink:href="#m9c03d42af2" y="302.92"/>
     <use style="fill-opacity:0;stroke:#9467bd;stroke-linejoin:miter;" x="65.276603" xlink:href="#m9c03d42af2" y="277.474872"/>
     <use style="fill-opacity:0;stroke:#9467bd;stroke-linejoin:miter;" x="68.62057" xlink:href="#m9c03d42af2" y="253.575147"/>
     <use style="fill-opacity:0;stroke:#9467bd;stroke-linejoin:miter;" x="76.311694" xlink:href="#m9c03d42af2" y="232.24334"/>
     <use style="fill-opacity:0;stroke:#9467bd;stroke-linejoin:miter;" x="83.334025" xlink:href="#m9c03d42af2" y="211.202616"/>
     <use style="fill-opacity:0;stroke:#9467bd;stroke-linejoin:miter;" x="99.552264" xlink:href="#m9c03d42af2" y="198.532819"/>
     <use style="fill-opacity:0;stroke:#9467bd;stroke-linejoin:miter;" x="113.429727" xlink:href="#m9c03d42af2" y="191.014278"/>
     <use style="fill-opacity:0;stroke:#9467bd;stroke-linejoin:miter;" x="130.651157" xlink:href="#m9c03d42af2" y="187.490166"/>
     <use style="fill-opacity:0;stroke:#9467bd;stroke-linejoin:miter;" x="202.713645" xlink:href="#m9c03d42af2" y="187.100985"/>
     <use style="fill-opacity:0;stroke:#9467bd;stroke-linejoin:miter;" x="216.256711" xlink:href="#m9c03d42af2" y="182.259114"/>
     <use style="fill-opacity:0;stroke:#9467bd;stroke-linejoin:miter;" x="232.140554" xlink:href="#m9c03d42af2" y="175.037409"/>
     <use style="fill-opacity:0;stroke:#9467bd;stroke-linejoin:miter;" x="239.831678" xlink:href="#m9c03d42af2" y="173.765648"/>
     <use style="fill-opacity:0;stroke:#9467bd;stroke-linejoin:miter;" x="401.679678" xlink:href="#m9c03d42af2" y="173.373222"/>
     <use style="fill-opacity:0;stroke:#9467bd;stroke-linejoin:miter;" x="403.853256" xlink:href="#m9c03d42af2" y="168.988805"/>
    </g>
   </g>
   <g id="line2d_22">
    <path clip-path="url(#p953fc3623c)" d="M 63.771818 302.92 
L 64.106215 289.421084 
L 64.60781 278.281419 
L 65.276603 269.193084 
L 65.611 265.820084 
L 66.446992 259.233623 
L 68.453372 248.86399 
L 69.456562 245.156445 
L 71.295744 239.730068 
L 72.466132 236.902781 
L 76.478893 229.40998 
L 78.485273 226.492751 
L 80.324455 224.141585 
L 83.166826 220.969098 
L 83.83562 220.289177 
L 88.349975 216.211059 
L 98.381876 209.306939 
L 100.388256 208.167714 
L 111.924942 202.622562 
L 113.429727 201.998801 
L 130.651157 195.957072 
L 203.048041 181.035028 
L 218.597488 178.879152 
L 232.140554 177.170694 
L 239.831678 176.26053 
L 403.853256 162.837644 
L 428.431413 161.414293 
L 428.431413 161.414293 
" style="fill:none;stroke:#8c564b;stroke-linecap:square;stroke-width:1.5;"/>
   </g>
   <g id="line2d_23">
    <defs>
     <path d="M -0 3 
L 3 -3 
L -3 -3 
z
" id="m20e8ac7734" style="stroke:#e377c2;stroke-linejoin:miter;"/>
    </defs>
    <g clip-path="url(#p953fc3623c)">
     <use style="fill-opacity:0;stroke:#e377c2;stroke-linejoin:miter;" x="63.771818" xlink:href="#m20e8ac7734" y="302.92"/>
     <use style="fill-opacity:0;stroke:#e377c2;stroke-linejoin:miter;" x="65.611" xlink:href="#m20e8ac7734" y="277.707319"/>
     <use style="fill-opacity:0;stroke:#e377c2;stroke-linejoin:miter;" x="67.115785" xlink:href="#m20e8ac7734" y="253.736864"/>
     <use style="fill-opacity:0;stroke:#e377c2;stroke-linejoin:miter;" x="69.62376" xlink:href="#m20e8ac7734" y="228.080283"/>
     <use style="fill-opacity:0;stroke:#e377c2;stroke-linejoin:miter;" x="73.803719" xlink:href="#m20e8ac7734" y="203.737555"/>
     <use style="fill-opacity:0;stroke:#e377c2;stroke-linejoin:miter;" x="82.83243" xlink:href="#m20e8ac7734" y="181.43474"/>
     <use style="fill-opacity:0;stroke:#e377c2;stroke-linejoin:miter;" x="95.706702" xlink:href="#m20e8ac7734" y="160.323804"/>
     <use style="fill-opacity:0;stroke:#e377c2;stroke-linejoin:miter;" x="110.754554" xlink:href="#m20e8ac7734" y="141.183802"/>
     <use style="fill-opacity:0;stroke:#e377c2;stroke-linejoin:miter;" x="129.146372" xlink:href="#m20e8ac7734" y="125.000192"/>
     <use style="fill-opacity:0;stroke:#e377c2;stroke-linejoin:miter;" x="149.878967" xlink:href="#m20e8ac7734" y="112.505422"/>
     <use style="fill-opacity:0;stroke:#e377c2;stroke-linejoin:miter;" x="172.116347" xlink:href="#m20e8ac7734" y="102.391083"/>
     <use style="fill-opacity:0;stroke:#e377c2;stroke-linejoin:miter;" x="195.524116" xlink:href="#m20e8ac7734" y="95.459531"/>
     <use style="fill-opacity:0;stroke:#e377c2;stroke-linejoin:miter;" x="219.433479" xlink:href="#m20e8ac7734" y="89.709873"/>
     <use style="fill-opacity:0;stroke:#e377c2;stroke-linejoin:miter;" x="243.844438" xlink:href="#m20e8ac7734" y="85.461717"/>
     <use style="fill-opacity:0;stroke:#e377c2;stroke-linejoin:miter;" x="267.753802" xlink:href="#m20e8ac7734" y="80.234755"/>
     <use style="fill-opacity:0;stroke:#e377c2;stroke-linejoin:miter;" x="291.830364" xlink:href="#m20e8ac7734" y="75.407305"/>
     <use style="fill-opacity:0;stroke:#e377c2;stroke-linejoin:miter;" x="316.241322" xlink:href="#m20e8ac7734" y="72.088018"/>
     <use style="fill-opacity:0;stroke:#e377c2;stroke-linejoin:miter;" x="339.649091" xlink:href="#m20e8ac7734" y="68.592279"/>
     <use style="fill-opacity:0;stroke:#e377c2;stroke-linejoin:miter;" x="365.06324" xlink:href="#m20e8ac7734" y="65.858944"/>
     <use style="fill-opacity:0;stroke:#e377c2;stroke-linejoin:miter;" x="389.641397" xlink:href="#m20e8ac7734" y="64.377416"/>
     <use style="fill-opacity:0;stroke:#e377c2;stroke-linejoin:miter;" x="415.891537" xlink:href="#m20e8ac7734" y="61.55752"/>
    </g>
   </g>
   <g id="line2d_24">
    <path clip-path="url(#p953fc3623c)" d="M 63.771818 302.92 
L 64.60781 278.621298 
L 65.276603 265.906803 
L 66.112595 253.996827 
L 67.115785 243.060304 
L 68.118975 234.365334 
L 69.289364 226.055066 
L 70.62695 218.19759 
L 72.131736 210.805163 
L 73.636521 204.507673 
L 75.308504 198.454131 
L 77.147686 192.659196 
L 78.986868 187.558873 
L 81.160446 182.226099 
L 83.334025 177.487134 
L 85.674802 172.911886 
L 88.182777 168.500324 
L 90.85795 164.249358 
L 93.700322 160.153986 
L 96.709893 156.208073 
L 99.886661 152.404888 
L 103.230628 148.737466 
L 106.908992 145.037447 
L 110.754554 141.484757 
L 114.934512 137.932063 
L 119.281669 134.526873 
L 123.963223 131.140648 
L 128.979174 127.788375 
L 134.329521 124.481384 
L 140.014264 121.228029 
L 146.200603 117.948884 
L 152.721339 114.745628 
L 159.743669 111.545677 
L 167.267595 108.364504 
L 175.293116 105.214215 
L 183.98743 102.04533 
L 193.183339 98.931808 
L 203.048041 95.82689 
L 213.24714 92.838207 
L 224.616628 89.736415 
L 236.822107 86.640141 
L 250.030777 83.524937 
L 264.075438 80.444821 
L 279.123289 77.374485 
L 295.341529 74.29572 
L 312.228562 71.31016 
L 330.954777 68.227055 
L 351.352975 65.10456 
L 372.08557 62.149278 
L 397.332521 58.807053 
L 422.245074 55.747642 
L 431.273785 54.690946 
L 431.273785 54.690946 
" style="fill:none;stroke:#7f7f7f;stroke-linecap:square;stroke-width:1.5;"/>
   </g>
   <g id="line2d_25">
    <defs>
     <path d="M 0 -3 
L -0.673542 -0.927051 
L -2.85317 -0.927051 
L -1.089814 0.354102 
L -1.763356 2.427051 
L -0 1.145898 
L 1.763356 2.427051 
L 1.089814 0.354102 
L 2.85317 -0.927051 
L 0.673542 -0.927051 
z
" id="m5e0272b7be" style="stroke:#bcbd22;stroke-linejoin:bevel;"/>
    </defs>
    <g clip-path="url(#p953fc3623c)">
     <use style="fill-opacity:0;stroke:#bcbd22;stroke-linejoin:bevel;" x="63.771818" xlink:href="#m5e0272b7be" y="302.92"/>
     <use style="fill-opacity:0;stroke:#bcbd22;stroke-linejoin:bevel;" x="65.778198" xlink:href="#m5e0272b7be" y="277.623853"/>
     <use style="fill-opacity:0;stroke:#bcbd22;stroke-linejoin:bevel;" x="67.282983" xlink:href="#m5e0272b7be" y="254.713864"/>
     <use style="fill-opacity:0;stroke:#bcbd22;stroke-linejoin:bevel;" x="69.456562" xlink:href="#m5e0272b7be" y="227.47523"/>
     <use style="fill-opacity:0;stroke:#bcbd22;stroke-linejoin:bevel;" x="75.141306" xlink:href="#m5e0272b7be" y="204.433482"/>
     <use style="fill-opacity:0;stroke:#bcbd22;stroke-linejoin:bevel;" x="85.006008" xlink:href="#m5e0272b7be" y="182.106247"/>
     <use style="fill-opacity:0;stroke:#bcbd22;stroke-linejoin:bevel;" x="97.044289" xlink:href="#m5e0272b7be" y="160.574085"/>
     <use style="fill-opacity:0;stroke:#bcbd22;stroke-linejoin:bevel;" x="112.928132" xlink:href="#m5e0272b7be" y="142.277436"/>
     <use style="fill-opacity:0;stroke:#bcbd22;stroke-linejoin:bevel;" x="131.487149" xlink:href="#m5e0272b7be" y="126.575457"/>
     <use style="fill-opacity:0;stroke:#bcbd22;stroke-linejoin:bevel;" x="151.049355" xlink:href="#m5e0272b7be" y="112.443362"/>
     <use style="fill-opacity:0;stroke:#bcbd22;stroke-linejoin:bevel;" x="171.614752" xlink:href="#m5e0272b7be" y="99.730289"/>
     <use style="fill-opacity:0;stroke:#bcbd22;stroke-linejoin:bevel;" x="194.186529" xlink:href="#m5e0272b7be" y="90.599094"/>
     <use style="fill-opacity:0;stroke:#bcbd22;stroke-linejoin:bevel;" x="217.594298" xlink:href="#m5e0272b7be" y="83.428502"/>
     <use style="fill-opacity:0;stroke:#bcbd22;stroke-linejoin:bevel;" x="241.503661" xlink:href="#m5e0272b7be" y="77.896316"/>
     <use style="fill-opacity:0;stroke:#bcbd22;stroke-linejoin:bevel;" x="265.078628" xlink:href="#m5e0272b7be" y="71.209007"/>
     <use style="fill-opacity:0;stroke:#bcbd22;stroke-linejoin:bevel;" x="288.820793" xlink:href="#m5e0272b7be" y="65.628856"/>
     <use style="fill-opacity:0;stroke:#bcbd22;stroke-linejoin:bevel;" x="312.562959" xlink:href="#m5e0272b7be" y="60.065822"/>
     <use style="fill-opacity:0;stroke:#bcbd22;stroke-linejoin:bevel;" x="336.806719" xlink:href="#m5e0272b7be" y="55.942374"/>
     <use style="fill-opacity:0;stroke:#bcbd22;stroke-linejoin:bevel;" x="360.716083" xlink:href="#m5e0272b7be" y="52.734103"/>
     <use style="fill-opacity:0;stroke:#bcbd22;stroke-linejoin:bevel;" x="386.130231" xlink:href="#m5e0272b7be" y="50.314185"/>
     <use style="fill-opacity:0;stroke:#bcbd22;stroke-linejoin:bevel;" x="410.373992" xlink:href="#m5e0272b7be" y="48.52496"/>
    </g>
   </g>
   <g id="line2d_26">
    <path clip-path="url(#p953fc3623c)" d="M 63.771818 302.92 
L 64.60781 285.212214 
L 65.443802 272.175585 
L 66.446992 260.022608 
L 67.61738 248.805154 
L 68.787769 239.655568 
L 70.125355 230.916726 
L 71.63014 222.629148 
L 73.134926 215.525901 
L 74.806909 208.665376 
L 76.646091 202.071861 
L 78.652471 195.75307 
L 80.658851 190.146445 
L 82.83243 184.709825 
L 85.173207 179.450921 
L 87.681182 174.37169 
L 90.356355 169.470244 
L 93.198727 164.742206 
L 96.208298 160.18165 
L 99.385066 155.781757 
L 102.729033 151.535267 
L 106.240198 147.434778 
L 109.918562 143.472949 
L 113.931322 139.482597 
L 117.944083 135.788372 
L 122.458438 131.935694 
L 127.139992 128.232127 
L 132.155942 124.547675 
L 137.506289 120.896601 
L 143.191033 117.289915 
L 149.210174 113.735941 
L 155.563711 110.240802 
L 162.418843 106.726002 
L 169.608372 103.288239 
L 177.299496 99.855732 
L 185.492215 96.442214 
L 194.353727 92.995772 
L 203.884033 89.537455 
L 213.915934 86.139247 
L 224.616628 82.753147 
L 235.986116 79.391067 
L 248.191595 76.017764 
L 261.233066 72.649289 
L 274.943331 69.337745 
L 289.489587 66.049514 
L 305.37343 62.690728 
L 322.260463 59.352007 
L 339.983488 56.073204 
L 359.044099 52.772353 
L 379.609496 49.440347 
L 401.178083 46.169903 
L 425.254645 42.756169 
L 431.440983 41.915549 
L 431.440983 41.915549 
" style="fill:none;stroke:#17becf;stroke-linecap:square;stroke-width:1.5;"/>
   </g>
   <g id="patch_3">
    <path d="M 45.38 302.92 
L 45.38 10.8 
" style="fill:none;stroke:#000000;stroke-linecap:square;stroke-linejoin:miter;stroke-width:0.8;"/>
   </g>
   <g id="patch_4">
    <path d="M 450 302.92 
L 450 10.8 
" style="fill:none;stroke:#000000;stroke-linecap:square;stroke-linejoin:miter;stroke-width:0.8;"/>
   </g>
   <g id="patch_5">
    <path d="M 45.38 302.92 
L 450 302.92 
" style="fill:none;stroke:#000000;stroke-linecap:square;stroke-linejoin:miter;stroke-width:0.8;"/>
   </g>
   <g id="patch_6">
    <path d="M 45.38 10.8 
L 450 10.8 
" style="fill:none;stroke:#000000;stroke-linecap:square;stroke-linejoin:miter;stroke-width:0.8;"/>
   </g>
   <g id="legend_1">
    <g id="patch_7">
     <path d="M 52.38 92.292188 
L 206.78 92.292188 
Q 208.78 92.292188 208.78 90.292188 
L 208.78 17.8 
Q 208.78 15.8 206.78 15.8 
L 52.38 15.8 
Q 50.38 15.8 50.38 17.8 
L 50.38 90.292188 
Q 50.38 92.292188 52.38 92.292188 
z
" style="fill:#ffffff;opacity:0.8;stroke:#cccccc;stroke-linejoin:miter;"/>
    </g>
    <g id="line2d_27"/>
    <g id="line2d_28">
     <g>
      <use style="fill-opacity:0;stroke:#1f77b4;" x="64.38" xlink:href="#mf917669601" y="23.898438"/>
     </g>
    </g>
    <g id="text_19">
     <!-- s$_0$ = 91 mM, e$_0$ = 1 g/L -->
     <defs>
      <path d="M 44.28125 53.078125 
L 44.28125 44.578125 
Q 40.484375 46.53125 36.375 47.5 
Q 32.28125 48.484375 27.875 48.484375 
Q 21.1875 48.484375 17.84375 46.4375 
Q 14.5 44.390625 14.5 40.28125 
Q 14.5 37.15625 16.890625 35.375 
Q 19.28125 33.59375 26.515625 31.984375 
L 29.59375 31.296875 
Q 39.15625 29.25 43.1875 25.515625 
Q 47.21875 21.78125 47.21875 15.09375 
Q 47.21875 7.46875 41.1875 3.015625 
Q 35.15625 -1.421875 24.609375 -1.421875 
Q 20.21875 -1.421875 15.453125 -0.5625 
Q 10.6875 0.296875 5.421875 2 
L 5.421875 11.28125 
Q 10.40625 8.6875 15.234375 7.390625 
Q 20.0625 6.109375 24.8125 6.109375 
Q 31.15625 6.109375 34.5625 8.28125 
Q 37.984375 10.453125 37.984375 14.40625 
Q 37.984375 18.0625 35.515625 20.015625 
Q 33.0625 21.96875 24.703125 23.78125 
L 21.578125 24.515625 
Q 13.234375 26.265625 9.515625 29.90625 
Q 5.8125 33.546875 5.8125 39.890625 
Q 5.8125 47.609375 11.28125 51.796875 
Q 16.75 56 26.8125 56 
Q 31.78125 56 36.171875 55.265625 
Q 40.578125 54.546875 44.28125 53.078125 
z
" id="DejaVuSans-115"/>
      <path id="DejaVuSans-32"/>
      <path d="M 10.59375 45.40625 
L 73.1875 45.40625 
L 73.1875 37.203125 
L 10.59375 37.203125 
z
M 10.59375 25.484375 
L 73.1875 25.484375 
L 73.1875 17.1875 
L 10.59375 17.1875 
z
" id="DejaVuSans-61"/>
      <path d="M 10.984375 1.515625 
L 10.984375 10.5 
Q 14.703125 8.734375 18.5 7.8125 
Q 22.3125 6.890625 25.984375 6.890625 
Q 35.75 6.890625 40.890625 13.453125 
Q 46.046875 20.015625 46.78125 33.40625 
Q 43.953125 29.203125 39.59375 26.953125 
Q 35.25 24.703125 29.984375 24.703125 
Q 19.046875 24.703125 12.671875 31.3125 
Q 6.296875 37.9375 6.296875 49.421875 
Q 6.296875 60.640625 12.9375 67.421875 
Q 19.578125 74.21875 30.609375 74.21875 
Q 43.265625 74.21875 49.921875 64.515625 
Q 56.59375 54.828125 56.59375 36.375 
Q 56.59375 19.140625 48.40625 8.859375 
Q 40.234375 -1.421875 26.421875 -1.421875 
Q 22.703125 -1.421875 18.890625 -0.6875 
Q 15.09375 0.046875 10.984375 1.515625 
z
M 30.609375 32.421875 
Q 37.25 32.421875 41.125 36.953125 
Q 45.015625 41.5 45.015625 49.421875 
Q 45.015625 57.28125 41.125 61.84375 
Q 37.25 66.40625 30.609375 66.40625 
Q 23.96875 66.40625 20.09375 61.84375 
Q 16.21875 57.28125 16.21875 49.421875 
Q 16.21875 41.5 20.09375 36.953125 
Q 23.96875 32.421875 30.609375 32.421875 
z
" id="DejaVuSans-57"/>
      <path d="M 52 44.1875 
Q 55.375 50.25 60.0625 53.125 
Q 64.75 56 71.09375 56 
Q 79.640625 56 84.28125 50.015625 
Q 88.921875 44.046875 88.921875 33.015625 
L 88.921875 0 
L 79.890625 0 
L 79.890625 32.71875 
Q 79.890625 40.578125 77.09375 44.375 
Q 74.3125 48.1875 68.609375 48.1875 
Q 61.625 48.1875 57.5625 43.546875 
Q 53.515625 38.921875 53.515625 30.90625 
L 53.515625 0 
L 44.484375 0 
L 44.484375 32.71875 
Q 44.484375 40.625 41.703125 44.40625 
Q 38.921875 48.1875 33.109375 48.1875 
Q 26.21875 48.1875 22.15625 43.53125 
Q 18.109375 38.875 18.109375 30.90625 
L 18.109375 0 
L 9.078125 0 
L 9.078125 54.6875 
L 18.109375 54.6875 
L 18.109375 46.1875 
Q 21.1875 51.21875 25.484375 53.609375 
Q 29.78125 56 35.6875 56 
Q 41.65625 56 45.828125 52.96875 
Q 50 49.953125 52 44.1875 
z
" id="DejaVuSans-109"/>
      <path d="M 9.8125 72.90625 
L 24.515625 72.90625 
L 43.109375 23.296875 
L 61.8125 72.90625 
L 76.515625 72.90625 
L 76.515625 0 
L 66.890625 0 
L 66.890625 64.015625 
L 48.09375 14.015625 
L 38.1875 14.015625 
L 19.390625 64.015625 
L 19.390625 0 
L 9.8125 0 
z
" id="DejaVuSans-77"/>
      <path d="M 11.71875 12.40625 
L 22.015625 12.40625 
L 22.015625 4 
L 14.015625 -11.625 
L 7.71875 -11.625 
L 11.71875 4 
z
" id="DejaVuSans-44"/>
      <path d="M 56.203125 29.59375 
L 56.203125 25.203125 
L 14.890625 25.203125 
Q 15.484375 15.921875 20.484375 11.0625 
Q 25.484375 6.203125 34.421875 6.203125 
Q 39.59375 6.203125 44.453125 7.46875 
Q 49.3125 8.734375 54.109375 11.28125 
L 54.109375 2.78125 
Q 49.265625 0.734375 44.1875 -0.34375 
Q 39.109375 -1.421875 33.890625 -1.421875 
Q 20.796875 -1.421875 13.15625 6.1875 
Q 5.515625 13.8125 5.515625 26.8125 
Q 5.515625 40.234375 12.765625 48.109375 
Q 20.015625 56 32.328125 56 
Q 43.359375 56 49.78125 48.890625 
Q 56.203125 41.796875 56.203125 29.59375 
z
M 47.21875 32.234375 
Q 47.125 39.59375 43.09375 43.984375 
Q 39.0625 48.390625 32.421875 48.390625 
Q 24.90625 48.390625 20.390625 44.140625 
Q 15.875 39.890625 15.1875 32.171875 
z
" id="DejaVuSans-101"/>
      <path d="M 45.40625 27.984375 
Q 45.40625 37.75 41.375 43.109375 
Q 37.359375 48.484375 30.078125 48.484375 
Q 22.859375 48.484375 18.828125 43.109375 
Q 14.796875 37.75 14.796875 27.984375 
Q 14.796875 18.265625 18.828125 12.890625 
Q 22.859375 7.515625 30.078125 7.515625 
Q 37.359375 7.515625 41.375 12.890625 
Q 45.40625 18.265625 45.40625 27.984375 
z
M 54.390625 6.78125 
Q 54.390625 -7.171875 48.1875 -13.984375 
Q 42 -20.796875 29.203125 -20.796875 
Q 24.46875 -20.796875 20.265625 -20.09375 
Q 16.0625 -19.390625 12.109375 -17.921875 
L 12.109375 -9.1875 
Q 16.0625 -11.328125 19.921875 -12.34375 
Q 23.78125 -13.375 27.78125 -13.375 
Q 36.625 -13.375 41.015625 -8.765625 
Q 45.40625 -4.15625 45.40625 5.171875 
L 45.40625 9.625 
Q 42.625 4.78125 38.28125 2.390625 
Q 33.9375 0 27.875 0 
Q 17.828125 0 11.671875 7.65625 
Q 5.515625 15.328125 5.515625 27.984375 
Q 5.515625 40.671875 11.671875 48.328125 
Q 17.828125 56 27.875 56 
Q 33.9375 56 38.28125 53.609375 
Q 42.625 51.21875 45.40625 46.390625 
L 45.40625 54.6875 
L 54.390625 54.6875 
z
" id="DejaVuSans-103"/>
      <path d="M 25.390625 72.90625 
L 33.6875 72.90625 
L 8.296875 -9.28125 
L 0 -9.28125 
z
" id="DejaVuSans-47"/>
      <path d="M 9.8125 72.90625 
L 19.671875 72.90625 
L 19.671875 8.296875 
L 55.171875 8.296875 
L 55.171875 0 
L 9.8125 0 
z
" id="DejaVuSans-76"/>
     </defs>
     <g transform="translate(82.38 27.398438)scale(0.1 -0.1)">
      <use transform="translate(0 0.78125)" xlink:href="#DejaVuSans-115"/>
      <use transform="translate(53.056641 -15.625)scale(0.7)" xlink:href="#DejaVuSans-48"/>
      <use transform="translate(100.327148 0.78125)" xlink:href="#DejaVuSans-32"/>
      <use transform="translate(132.114258 0.78125)" xlink:href="#DejaVuSans-61"/>
      <use transform="translate(215.90332 0.78125)" xlink:href="#DejaVuSans-32"/>
      <use transform="translate(247.69043 0.78125)" xlink:href="#DejaVuSans-57"/>
      <use transform="translate(311.313477 0.78125)" xlink:href="#DejaVuSans-49"/>
      <use transform="translate(374.936523 0.78125)" xlink:href="#DejaVuSans-32"/>
      <use transform="translate(406.723633 0.78125)" xlink:href="#DejaVuSans-109"/>
      <use transform="translate(504.135742 0.78125)" xlink:href="#DejaVuSans-77"/>
      <use transform="translate(590.415039 0.78125)" xlink:href="#DejaVuSans-44"/>
      <use transform="translate(622.202148 0.78125)" xlink:href="#DejaVuSans-32"/>
      <use transform="translate(653.989258 0.78125)" xlink:href="#DejaVuSans-101"/>
      <use transform="translate(716.469727 -15.625)scale(0.7)" xlink:href="#DejaVuSans-48"/>
      <use transform="translate(763.740234 0.78125)" xlink:href="#DejaVuSans-32"/>
      <use transform="translate(795.527344 0.78125)" xlink:href="#DejaVuSans-61"/>
      <use transform="translate(879.316406 0.78125)" xlink:href="#DejaVuSans-32"/>
      <use transform="translate(911.103516 0.78125)" xlink:href="#DejaVuSans-49"/>
      <use transform="translate(974.726562 0.78125)" xlink:href="#DejaVuSans-32"/>
      <use transform="translate(1006.513672 0.78125)" xlink:href="#DejaVuSans-103"/>
      <use transform="translate(1069.990234 0.78125)" xlink:href="#DejaVuSans-47"/>
      <use transform="translate(1103.681641 0.78125)" xlink:href="#DejaVuSans-76"/>
     </g>
    </g>
    <g id="line2d_29"/>
    <g id="line2d_30">
     <g>
      <use style="fill-opacity:0;stroke:#2ca02c;stroke-linejoin:miter;" x="64.38" xlink:href="#m3923752244" y="38.596875"/>
     </g>
    </g>
    <g id="text_20">
     <!-- s$_0$ = 91 mM, e$_0$ = 2 g/L -->
     <g transform="translate(82.38 42.096875)scale(0.1 -0.1)">
      <use transform="translate(0 0.78125)" xlink:href="#DejaVuSans-115"/>
      <use transform="translate(53.056641 -15.625)scale(0.7)" xlink:href="#DejaVuSans-48"/>
      <use transform="translate(100.327148 0.78125)" xlink:href="#DejaVuSans-32"/>
      <use transform="translate(132.114258 0.78125)" xlink:href="#DejaVuSans-61"/>
      <use transform="translate(215.90332 0.78125)" xlink:href="#DejaVuSans-32"/>
      <use transform="translate(247.69043 0.78125)" xlink:href="#DejaVuSans-57"/>
      <use transform="translate(311.313477 0.78125)" xlink:href="#DejaVuSans-49"/>
      <use transform="translate(374.936523 0.78125)" xlink:href="#DejaVuSans-32"/>
      <use transform="translate(406.723633 0.78125)" xlink:href="#DejaVuSans-109"/>
      <use transform="translate(504.135742 0.78125)" xlink:href="#DejaVuSans-77"/>
      <use transform="translate(590.415039 0.78125)" xlink:href="#DejaVuSans-44"/>
      <use transform="translate(622.202148 0.78125)" xlink:href="#DejaVuSans-32"/>
      <use transform="translate(653.989258 0.78125)" xlink:href="#DejaVuSans-101"/>
      <use transform="translate(716.469727 -15.625)scale(0.7)" xlink:href="#DejaVuSans-48"/>
      <use transform="translate(763.740234 0.78125)" xlink:href="#DejaVuSans-32"/>
      <use transform="translate(795.527344 0.78125)" xlink:href="#DejaVuSans-61"/>
      <use transform="translate(879.316406 0.78125)" xlink:href="#DejaVuSans-32"/>
      <use transform="translate(911.103516 0.78125)" xlink:href="#DejaVuSans-50"/>
      <use transform="translate(974.726562 0.78125)" xlink:href="#DejaVuSans-32"/>
      <use transform="translate(1006.513672 0.78125)" xlink:href="#DejaVuSans-103"/>
      <use transform="translate(1069.990234 0.78125)" xlink:href="#DejaVuSans-47"/>
      <use transform="translate(1103.681641 0.78125)" xlink:href="#DejaVuSans-76"/>
     </g>
    </g>
    <g id="line2d_31"/>
    <g id="line2d_32">
     <g>
      <use style="fill-opacity:0;stroke:#9467bd;stroke-linejoin:miter;" x="64.38" xlink:href="#m9c03d42af2" y="53.295313"/>
     </g>
    </g>
    <g id="text_21">
     <!-- s$_0$ = 91 mM, e$_0$ = 3 g/L -->
     <g transform="translate(82.38 56.795313)scale(0.1 -0.1)">
      <use transform="translate(0 0.78125)" xlink:href="#DejaVuSans-115"/>
      <use transform="translate(53.056641 -15.625)scale(0.7)" xlink:href="#DejaVuSans-48"/>
      <use transform="translate(100.327148 0.78125)" xlink:href="#DejaVuSans-32"/>
      <use transform="translate(132.114258 0.78125)" xlink:href="#DejaVuSans-61"/>
      <use transform="translate(215.90332 0.78125)" xlink:href="#DejaVuSans-32"/>
      <use transform="translate(247.69043 0.78125)" xlink:href="#DejaVuSans-57"/>
      <use transform="translate(311.313477 0.78125)" xlink:href="#DejaVuSans-49"/>
      <use transform="translate(374.936523 0.78125)" xlink:href="#DejaVuSans-32"/>
      <use transform="translate(406.723633 0.78125)" xlink:href="#DejaVuSans-109"/>
      <use transform="translate(504.135742 0.78125)" xlink:href="#DejaVuSans-77"/>
      <use transform="translate(590.415039 0.78125)" xlink:href="#DejaVuSans-44"/>
      <use transform="translate(622.202148 0.78125)" xlink:href="#DejaVuSans-32"/>
      <use transform="translate(653.989258 0.78125)" xlink:href="#DejaVuSans-101"/>
      <use transform="translate(716.469727 -15.625)scale(0.7)" xlink:href="#DejaVuSans-48"/>
      <use transform="translate(763.740234 0.78125)" xlink:href="#DejaVuSans-32"/>
      <use transform="translate(795.527344 0.78125)" xlink:href="#DejaVuSans-61"/>
      <use transform="translate(879.316406 0.78125)" xlink:href="#DejaVuSans-32"/>
      <use transform="translate(911.103516 0.78125)" xlink:href="#DejaVuSans-51"/>
      <use transform="translate(974.726562 0.78125)" xlink:href="#DejaVuSans-32"/>
      <use transform="translate(1006.513672 0.78125)" xlink:href="#DejaVuSans-103"/>
      <use transform="translate(1069.990234 0.78125)" xlink:href="#DejaVuSans-47"/>
      <use transform="translate(1103.681641 0.78125)" xlink:href="#DejaVuSans-76"/>
     </g>
    </g>
    <g id="line2d_33"/>
    <g id="line2d_34">
     <g>
      <use style="fill-opacity:0;stroke:#e377c2;stroke-linejoin:miter;" x="64.38" xlink:href="#m20e8ac7734" y="67.99375"/>
     </g>
    </g>
    <g id="text_22">
     <!-- s$_0$ = 273 mM, e$_0$ = 3 g/L -->
     <g transform="translate(82.38 71.49375)scale(0.1 -0.1)">
      <use transform="translate(0 0.78125)" xlink:href="#DejaVuSans-115"/>
      <use transform="translate(53.056641 -15.625)scale(0.7)" xlink:href="#DejaVuSans-48"/>
      <use transform="translate(100.327148 0.78125)" xlink:href="#DejaVuSans-32"/>
      <use transform="translate(132.114258 0.78125)" xlink:href="#DejaVuSans-61"/>
      <use transform="translate(215.90332 0.78125)" xlink:href="#DejaVuSans-32"/>
      <use transform="translate(247.69043 0.78125)" xlink:href="#DejaVuSans-50"/>
      <use transform="translate(311.313477 0.78125)" xlink:href="#DejaVuSans-55"/>
      <use transform="translate(374.936523 0.78125)" xlink:href="#DejaVuSans-51"/>
      <use transform="translate(438.55957 0.78125)" xlink:href="#DejaVuSans-32"/>
      <use transform="translate(470.34668 0.78125)" xlink:href="#DejaVuSans-109"/>
      <use transform="translate(567.758789 0.78125)" xlink:href="#DejaVuSans-77"/>
      <use transform="translate(654.038086 0.78125)" xlink:href="#DejaVuSans-44"/>
      <use transform="translate(685.825195 0.78125)" xlink:href="#DejaVuSans-32"/>
      <use transform="translate(717.612305 0.78125)" xlink:href="#DejaVuSans-101"/>
      <use transform="translate(780.092773 -15.625)scale(0.7)" xlink:href="#DejaVuSans-48"/>
      <use transform="translate(827.363281 0.78125)" xlink:href="#DejaVuSans-32"/>
      <use transform="translate(859.150391 0.78125)" xlink:href="#DejaVuSans-61"/>
      <use transform="translate(942.939453 0.78125)" xlink:href="#DejaVuSans-32"/>
      <use transform="translate(974.726562 0.78125)" xlink:href="#DejaVuSans-51"/>
      <use transform="translate(1038.349609 0.78125)" xlink:href="#DejaVuSans-32"/>
      <use transform="translate(1070.136719 0.78125)" xlink:href="#DejaVuSans-103"/>
      <use transform="translate(1133.613281 0.78125)" xlink:href="#DejaVuSans-47"/>
      <use transform="translate(1167.304688 0.78125)" xlink:href="#DejaVuSans-76"/>
     </g>
    </g>
    <g id="line2d_35"/>
    <g id="line2d_36">
     <g>
      <use style="fill-opacity:0;stroke:#bcbd22;stroke-linejoin:bevel;" x="64.38" xlink:href="#m5e0272b7be" y="82.692187"/>
     </g>
    </g>
    <g id="text_23">
     <!-- s$_0$ = 364 mM, e$_0$ = 3 g/L -->
     <defs>
      <path d="M 33.015625 40.375 
Q 26.375 40.375 22.484375 35.828125 
Q 18.609375 31.296875 18.609375 23.390625 
Q 18.609375 15.53125 22.484375 10.953125 
Q 26.375 6.390625 33.015625 6.390625 
Q 39.65625 6.390625 43.53125 10.953125 
Q 47.40625 15.53125 47.40625 23.390625 
Q 47.40625 31.296875 43.53125 35.828125 
Q 39.65625 40.375 33.015625 40.375 
z
M 52.59375 71.296875 
L 52.59375 62.3125 
Q 48.875 64.0625 45.09375 64.984375 
Q 41.3125 65.921875 37.59375 65.921875 
Q 27.828125 65.921875 22.671875 59.328125 
Q 17.53125 52.734375 16.796875 39.40625 
Q 19.671875 43.65625 24.015625 45.921875 
Q 28.375 48.1875 33.59375 48.1875 
Q 44.578125 48.1875 50.953125 41.515625 
Q 57.328125 34.859375 57.328125 23.390625 
Q 57.328125 12.15625 50.6875 5.359375 
Q 44.046875 -1.421875 33.015625 -1.421875 
Q 20.359375 -1.421875 13.671875 8.265625 
Q 6.984375 17.96875 6.984375 36.375 
Q 6.984375 53.65625 15.1875 63.9375 
Q 23.390625 74.21875 37.203125 74.21875 
Q 40.921875 74.21875 44.703125 73.484375 
Q 48.484375 72.75 52.59375 71.296875 
z
" id="DejaVuSans-54"/>
      <path d="M 37.796875 64.3125 
L 12.890625 25.390625 
L 37.796875 25.390625 
z
M 35.203125 72.90625 
L 47.609375 72.90625 
L 47.609375 25.390625 
L 58.015625 25.390625 
L 58.015625 17.1875 
L 47.609375 17.1875 
L 47.609375 0 
L 37.796875 0 
L 37.796875 17.1875 
L 4.890625 17.1875 
L 4.890625 26.703125 
z
" id="DejaVuSans-52"/>
     </defs>
     <g transform="translate(82.38 86.192187)scale(0.1 -0.1)">
      <use transform="translate(0 0.78125)" xlink:href="#DejaVuSans-115"/>
      <use transform="translate(53.056641 -15.625)scale(0.7)" xlink:href="#DejaVuSans-48"/>
      <use transform="translate(100.327148 0.78125)" xlink:href="#DejaVuSans-32"/>
      <use transform="translate(132.114258 0.78125)" xlink:href="#DejaVuSans-61"/>
      <use transform="translate(215.90332 0.78125)" xlink:href="#DejaVuSans-32"/>
      <use transform="translate(247.69043 0.78125)" xlink:href="#DejaVuSans-51"/>
      <use transform="translate(311.313477 0.78125)" xlink:href="#DejaVuSans-54"/>
      <use transform="translate(374.936523 0.78125)" xlink:href="#DejaVuSans-52"/>
      <use transform="translate(438.55957 0.78125)" xlink:href="#DejaVuSans-32"/>
      <use transform="translate(470.34668 0.78125)" xlink:href="#DejaVuSans-109"/>
      <use transform="translate(567.758789 0.78125)" xlink:href="#DejaVuSans-77"/>
      <use transform="translate(654.038086 0.78125)" xlink:href="#DejaVuSans-44"/>
      <use transform="translate(685.825195 0.78125)" xlink:href="#DejaVuSans-32"/>
      <use transform="translate(717.612305 0.78125)" xlink:href="#DejaVuSans-101"/>
      <use transform="translate(780.092773 -15.625)scale(0.7)" xlink:href="#DejaVuSans-48"/>
      <use transform="translate(827.363281 0.78125)" xlink:href="#DejaVuSans-32"/>
      <use transform="translate(859.150391 0.78125)" xlink:href="#DejaVuSans-61"/>
      <use transform="translate(942.939453 0.78125)" xlink:href="#DejaVuSans-32"/>
      <use transform="translate(974.726562 0.78125)" xlink:href="#DejaVuSans-51"/>
      <use transform="translate(1038.349609 0.78125)" xlink:href="#DejaVuSans-32"/>
      <use transform="translate(1070.136719 0.78125)" xlink:href="#DejaVuSans-103"/>
      <use transform="translate(1133.613281 0.78125)" xlink:href="#DejaVuSans-47"/>
      <use transform="translate(1167.304688 0.78125)" xlink:href="#DejaVuSans-76"/>
     </g>
    </g>
   </g>
  </g>
 </g>
 <defs>
  <clipPath id="p953fc3623c">
   <rect height="292.12" width="404.62" x="45.38" y="10.8"/>
  </clipPath>
 </defs>
</svg>
